<?xml version="1.0" encoding="UTF-8"?><svg id="a" xmlns="http://www.w3.org/2000/svg" viewBox="0 0 1591.79 1591.67"><path d="M788.55,1367.37c-1.38-.02-2.48-1.15-2.47-2.53h0c.02-1.38,1.15-2.48,2.53-2.47h0c1.39.02,2.49,1.15,2.47,2.54h0c-.01,1.36-1.13,2.46-2.5,2.46h-.03ZM801.11,1364.9c-.02-1.38,1.08-2.51,2.46-2.53h0c1.38-.02,2.52,1.09,2.54,2.46h0c0,1.38-1.09,2.52-2.47,2.54h-.03c-1.37,0-2.49-1.1-2.5-2.47ZM773.47,1366.99c-1.38-.06-2.45-1.22-2.4-2.6h0c.05-1.38,1.21-2.45,2.59-2.4h0c1.38.05,2.46,1.22,2.41,2.6h0c-.06,1.34-1.17,2.4-2.5,2.4h-.1ZM816.11,1364.57c-.06-1.38,1.01-2.54,2.39-2.59h0c1.37-.06,2.54,1.02,2.59,2.4h0c.06,1.38-1.02,2.54-2.4,2.59h-.1c-1.33,0-2.44-1.05-2.49-2.4ZM758.4,1366.21c-1.37-.09-2.42-1.28-2.33-2.66h0c.09-1.38,1.28-2.42,2.66-2.33h0c1.37.09,2.42,1.28,2.33,2.65h0c-.09,1.33-1.19,2.34-2.49,2.34h-.17ZM831.11,1363.85c-.09-1.38.95-2.57,2.33-2.66h0c1.38-.09,2.57.96,2.66,2.34h0c.09,1.38-.95,2.56-2.33,2.65h0c-.06,0-.11,0-.17,0h0c-1.31,0-2.4-1.02-2.49-2.34ZM743.36,1365.04c-1.37-.13-2.39-1.34-2.26-2.72h0c.13-1.37,1.34-2.39,2.72-2.26h0c1.37.12,2.38,1.34,2.26,2.71h0c-.12,1.3-1.21,2.28-2.49,2.28h0c-.07,0-.15-.01-.23-.01ZM846.09,1362.74c-.13-1.38.89-2.59,2.26-2.72h0c1.38-.13,2.59.89,2.72,2.26h0c.13,1.38-.89,2.6-2.26,2.72h0c-.08.01-.16.01-.23.01h0c-1.28,0-2.37-.97-2.49-2.27ZM728.36,1363.47h0c-1.38-.16-2.36-1.4-2.19-2.77h0c.16-1.38,1.4-2.36,2.77-2.2h0c1.37.17,2.35,1.41,2.19,2.78h0c-.15,1.27-1.23,2.21-2.48,2.21h0c-.09,0-.19,0-.29-.02ZM861.03,1361.24c-.16-1.37.82-2.62,2.19-2.78h0c1.37-.16,2.62.82,2.78,2.19h0c.16,1.37-.82,2.61-2.19,2.78h0c-.1,0-.2,0-.3,0h0c-1.25,0-2.32-.93-2.48-2.2ZM713.4,1361.51c-1.37-.2-2.32-1.47-2.12-2.84h0c.2-1.36,1.47-2.31,2.83-2.11h0c1.37.2,2.32,1.47,2.12,2.83h0c-.18,1.25-1.25,2.14-2.47,2.14h0c-.12,0-.24,0-.36-.02ZM875.94,1359.34c-.2-1.37.74-2.64,2.11-2.83h0c1.37-.2,2.64.74,2.83,2.11h0c.2,1.37-.74,2.63-2.11,2.83h0c-.12.02-.24.03-.36.03h0c-1.22,0-2.29-.9-2.47-2.14ZM698.49,1359.15c-1.36-.23-2.27-1.52-2.04-2.89h0c.24-1.36,1.53-2.27,2.89-2.03h0c1.36.23,2.27,1.52,2.04,2.88h0c-.21,1.22-1.26,2.08-2.46,2.08h0c-.14,0-.28,0-.43-.04ZM890.78,1357.05c-.23-1.36.68-2.66,2.04-2.89h0c1.36-.24,2.65.68,2.89,2.04h0c.23,1.36-.68,2.65-2.04,2.89h0c-.14.02-.29.04-.43.04h0c-1.19,0-2.25-.86-2.46-2.08ZM683.66,1356.4c-1.35-.27-2.23-1.58-1.96-2.94h0c.26-1.35,1.58-2.23,2.94-1.96h0c1.35.27,2.23,1.58,1.96,2.94h0c-.24,1.19-1.28,2.01-2.45,2.01h0c-.16,0-.33,0-.49-.05ZM905.56,1354.37c-.27-1.36.61-2.67,1.96-2.94h0c1.35-.28,2.67.6,2.94,1.96h0c.27,1.35-.6,2.67-1.96,2.94h0c-.16.03-.33.05-.49.05h0c-1.17,0-2.21-.83-2.45-2.01ZM668.9,1353.26c-1.35-.3-2.19-1.64-1.88-2.99h0c.3-1.35,1.64-2.19,2.99-1.89h0c1.34.31,2.19,1.65,1.88,3h0c-.26,1.16-1.29,1.94-2.43,1.94h0c-.19,0-.37-.02-.56-.06ZM920.26,1351.29c-.3-1.34.54-2.68,1.89-2.99h0c1.34-.31,2.68.54,2.99,1.88h0c.31,1.35-.54,2.69-1.88,2.99h0c-.19.05-.38.07-.56.07h0c-1.14,0-2.17-.79-2.44-1.95ZM654.23,1349.73c-1.33-.35-2.14-1.71-1.8-3.04h0c.34-1.34,1.7-2.15,3.04-1.81h0c1.34.34,2.15,1.7,1.81,3.04h0c-.3,1.13-1.31,1.89-2.43,1.88h0c-.2,0-.41-.02-.62-.07ZM934.88,1347.83c-.34-1.34.47-2.7,1.8-3.04h0c1.34-.34,2.7.46,3.05,1.8h0c.34,1.34-.47,2.7-1.81,3.04h0c-.21.06-.41.08-.62.08h0c-1.11,0-2.13-.75-2.42-1.88ZM639.66,1345.8c-1.33-.37-2.1-1.75-1.72-3.08h0c.38-1.33,1.76-2.1,3.09-1.73h0c1.33.38,2.1,1.76,1.72,3.09h0c-.31,1.1-1.32,1.82-2.41,1.82h0c-.22,0-.45-.03-.68-.1ZM949.4,1343.98c-.38-1.33.39-2.71,1.72-3.09h0c1.33-.38,2.71.39,3.09,1.72h0c.38,1.33-.39,2.71-1.72,3.09h0c-.23.07-.46.1-.68.1h0c-1.09,0-2.1-.72-2.41-1.82ZM625.2,1341.5c-1.32-.42-2.05-1.82-1.64-3.14h0c.41-1.32,1.82-2.05,3.13-1.64h0c1.32.41,2.05,1.82,1.64,3.14h0c-.33,1.06-1.32,1.75-2.38,1.75h0c-.25,0-.5-.04-.75-.11ZM963.81,1339.74c-.41-1.31.32-2.72,1.64-3.13h0c1.32-.41,2.72.32,3.13,1.64h0c.42,1.32-.32,2.72-1.63,3.13h0c-.25.08-.51.12-.75.12h0c-1.07,0-2.05-.69-2.39-1.76ZM610.81,1336.79c-1.3-.45-2-1.87-1.55-3.18h0c.44-1.31,1.86-2,3.17-1.55h0c1.3.44,2,1.86,1.56,3.17h0c-.36,1.04-1.33,1.69-2.37,1.69h0c-.27,0-.54-.04-.81-.13ZM978.11,1335.13c-.45-1.31.25-2.73,1.55-3.18h0c1.31-.45,2.73.25,3.18,1.56h0c.44,1.3-.25,2.73-1.56,3.17h0c-.27.09-.54.14-.81.14h0c-1.04,0-2.01-.65-2.36-1.69ZM596.55,1331.7c-1.29-.49-1.95-1.92-1.47-3.22h0c.48-1.29,1.93-1.95,3.22-1.47h0c1.29.48,1.95,1.92,1.47,3.22h0c-.37,1-1.33,1.62-2.34,1.62h0c-.29,0-.59-.05-.88-.15ZM992.27,1330.13c-.48-1.29.18-2.73,1.47-3.21h0c1.3-.49,2.74.17,3.22,1.46h0c.48,1.3-.18,2.74-1.47,3.22h0c-.29.11-.58.16-.87.16h0c-1.02,0-1.97-.62-2.35-1.63ZM582.44,1326.23c-1.28-.52-1.9-1.97-1.38-3.25h0c.51-1.28,1.97-1.9,3.25-1.39h0c1.28.52,1.9,1.97,1.39,3.25h0c-.4.98-1.33,1.57-2.32,1.57h0c-.31,0-.63-.06-.94-.18ZM1006.3,1324.76c-.51-1.28.11-2.74,1.39-3.25h0c1.28-.52,2.73.1,3.25,1.38h0c.52,1.28-.1,2.74-1.38,3.25h0c-.31.13-.63.19-.94.19h0c-.99,0-1.92-.6-2.32-1.57ZM568.49,1320.39c-1.27-.55-1.85-2.02-1.3-3.29h0c.55-1.27,2.02-1.85,3.29-1.3h0c1.26.55,1.84,2.03,1.29,3.29h0c-.4.95-1.32,1.51-2.29,1.51h0c-.33,0-.67-.07-.99-.21ZM1020.14,1319.04c-.55-1.27.03-2.74,1.29-3.29h0c1.27-.55,2.74.03,3.29,1.3h0c.55,1.26-.03,2.74-1.3,3.29h0c-.32.14-.66.2-.99.2h0c-.96,0-1.88-.56-2.29-1.5ZM554.69,1314.18c-1.25-.58-1.79-2.07-1.21-3.32h0c.58-1.25,2.07-1.79,3.33-1.21h0c1.25.58,1.79,2.07,1.2,3.32h0c-.42.91-1.32,1.45-2.26,1.45h0c-.36,0-.72-.08-1.06-.24ZM1033.82,1312.95c-.58-1.25-.04-2.74,1.21-3.32h0c1.25-.59,2.74-.05,3.32,1.21h0c.59,1.25.04,2.74-1.21,3.32h0c-.34.16-.7.24-1.05.24h0c-.95,0-1.85-.54-2.27-1.45ZM1047.34,1306.5c-.62-1.23-.11-2.74,1.12-3.35h0c1.24-.62,2.74-.12,3.35,1.12h0c.62,1.24.12,2.74-1.12,3.35h0c-.36.18-.74.27-1.11.27h0c-.92,0-1.8-.51-2.24-1.39ZM541.07,1307.61c-1.23-.61-1.74-2.11-1.12-3.35h0c.62-1.24,2.12-1.74,3.35-1.12h0c1.24.61,1.74,2.11,1.12,3.35h0c-.43.88-1.32,1.39-2.23,1.39h0c-.38,0-.76-.09-1.12-.27ZM1060.69,1299.7c-.65-1.22-.19-2.74,1.03-3.38h0c1.22-.65,2.73-.19,3.38,1.03h0c.65,1.22.19,2.73-1.03,3.38h0c-.37.2-.78.29-1.17.29h0c-.9,0-1.76-.48-2.21-1.32ZM527.64,1300.68c-1.22-.64-1.69-2.16-1.04-3.38h0c.65-1.22,2.16-1.68,3.38-1.03h0c1.22.65,1.68,2.16,1.04,3.38h0c-.45.85-1.32,1.33-2.21,1.33h0c-.4,0-.8-.1-1.17-.3ZM1073.86,1292.54c-.69-1.2-.26-2.73.94-3.41h0c1.2-.68,2.73-.26,3.41.94h0c.68,1.2.25,2.73-.95,3.41h0c-.39.22-.81.33-1.23.33h0c-.87,0-1.71-.46-2.17-1.27ZM514.39,1293.4c-1.2-.68-1.63-2.2-.94-3.4h0c.68-1.21,2.2-1.63,3.4-.95h0c1.2.69,1.63,2.21.95,3.41h0c-.46.81-1.31,1.27-2.18,1.27h0c-.42,0-.84-.11-1.23-.33ZM1086.83,1285.03c-.71-1.18-.33-2.72.86-3.43h0c1.19-.71,2.72-.33,3.44.86h0c.71,1.18.33,2.71-.85,3.43h0c-.4.24-.84.36-1.28.36h0c-.85,0-1.68-.44-2.15-1.22ZM501.34,1285.78h0c-1.18-.72-1.56-2.25-.85-3.43h0c.71-1.19,2.25-1.57,3.43-.86h0c1.18.72,1.57,2.25.85,3.43h0c-.47.78-1.29,1.22-2.14,1.22h0c-.44,0-.89-.12-1.29-.36ZM1099.61,1277.19c-.74-1.17-.4-2.71.76-3.46h0c1.17-.74,2.71-.4,3.46.77h0c.74,1.16.4,2.71-.77,3.45h0c-.41.27-.88.39-1.34.39h0c-.82,0-1.63-.4-2.11-1.15ZM488.5,1277.81c-1.16-.74-1.5-2.29-.76-3.45h0c.75-1.17,2.29-1.51,3.46-.76h0c1.16.74,1.5,2.28.76,3.45h0c-.48.74-1.29,1.15-2.11,1.15h0c-.46,0-.93-.12-1.35-.39ZM1112.18,1269.01c-.77-1.15-.47-2.7.67-3.47h0c1.14-.78,2.7-.48,3.47.67h0c.78,1.14.48,2.69-.67,3.47h0c-.43.29-.91.43-1.4.43h0c-.8,0-1.59-.39-2.07-1.1ZM475.88,1269.51c-1.14-.78-1.44-2.33-.67-3.47h0c.78-1.15,2.33-1.45,3.48-.67h0c1.14.77,1.44,2.33.67,3.47h0c-.49.71-1.28,1.1-2.08,1.1h0c-.48,0-.97-.14-1.4-.43ZM1124.53,1260.5c-.8-1.13-.54-2.69.58-3.49h0c1.13-.81,2.69-.55,3.49.58h0c.8,1.12.54,2.68-.58,3.48h0c-.44.32-.95.47-1.45.47h0c-.78,0-1.55-.36-2.04-1.04ZM463.49,1260.88c-1.12-.81-1.38-2.37-.58-3.49h0c.81-1.12,2.37-1.38,3.49-.58h0c1.12.8,1.38,2.37.58,3.49h0c-.49.68-1.26,1.04-2.04,1.04h0c-.5,0-1.01-.15-1.45-.46ZM1136.66,1251.66c-.83-1.1-.61-2.67.49-3.5h0c1.1-.83,2.67-.62,3.5.49h0c.83,1.1.61,2.66-.49,3.5h0c-.45.34-.98.5-1.5.5h0c-.76,0-1.51-.34-2-.99ZM451.33,1251.92c-1.1-.83-1.32-2.4-.49-3.5h0c.84-1.1,2.4-1.32,3.5-.48h0c1.11.83,1.32,2.4.49,3.5h0c-.49.65-1.24.99-2,.99h0c-.52,0-1.05-.16-1.5-.51ZM1148.56,1242.51c-.86-1.08-.69-2.65.39-3.52h0c1.08-.86,2.65-.68,3.51.4h0c.86,1.08.69,2.65-.39,3.51h0c-.46.37-1.01.55-1.56.55h0c-.73,0-1.46-.32-1.95-.94ZM439.41,1242.66c-1.08-.87-1.26-2.44-.39-3.52h0c.86-1.08,2.43-1.25,3.51-.39h0c1.08.86,1.26,2.43.39,3.51h0c-.49.62-1.22.94-1.95.94h0c-.55,0-1.1-.18-1.56-.54ZM1160.21,1233.04c-.89-1.05-.76-2.63.3-3.52h0c1.05-.89,2.63-.75,3.52.31h0c.89,1.05.76,2.63-.3,3.52h0c-.47.39-1.04.58-1.61.58h0c-.71,0-1.42-.3-1.91-.89ZM427.74,1233.08c-1.06-.89-1.19-2.47-.3-3.52h0c.89-1.06,2.47-1.19,3.52-.3h0c1.06.89,1.19,2.46.3,3.52h0c-.49.59-1.2.89-1.91.89h0c-.57,0-1.14-.19-1.61-.59ZM1171.61,1223.28c-.92-1.04-.83-2.62.21-3.53h0c1.03-.92,2.61-.82,3.53.21h0c.91,1.03.82,2.61-.21,3.53h0c-.48.42-1.07.63-1.66.63h0c-.69,0-1.38-.29-1.87-.84ZM416.33,1223.2c-1.03-.92-1.13-2.49-.21-3.53h0c.92-1.03,2.5-1.12,3.53-.21h0c1.03.92,1.12,2.5.21,3.53h0c-.5.56-1.18.84-1.87.84h0c-.59,0-1.19-.2-1.66-.63ZM1182.75,1213.21c-.94-1.01-.89-2.59.12-3.53h0c1.01-.95,2.59-.89,3.54.12h0c.94,1.01.88,2.59-.13,3.53h0c-.49.45-1.1.67-1.71.67h0c-.67,0-1.34-.26-1.83-.79ZM405.18,1213.03c-1-.94-1.06-2.52-.11-3.53h0c.94-1.01,2.52-1.06,3.53-.12h0c1.01.95,1.06,2.53.12,3.54h0c-.5.52-1.16.79-1.83.79h0c-.61,0-1.23-.23-1.71-.68ZM1193.63,1202.86c-.97-.99-.96-2.57.02-3.54h0c.98-.97,2.57-.96,3.54.03h0c.97.98.96,2.56-.03,3.53h0c-.48.48-1.12.72-1.75.72h0c-.65,0-1.29-.25-1.78-.74ZM394.31,1202.57c-.99-.97-.99-2.55-.02-3.53h0c.97-.99,2.55-1,3.53-.03h0c.98.97.99,2.56.02,3.54h0c-.48.49-1.13.74-1.77.74h0c-.64,0-1.27-.24-1.76-.72ZM1204.23,1192.22c-.99-.96-1.02-2.54-.07-3.54h0c.96-.99,2.54-1.02,3.54-.06h0c.99.95,1.02,2.54.07,3.53h0c-.49.51-1.15.77-1.81.77h0c-.62,0-1.24-.23-1.73-.7ZM383.71,1191.83h0c-.95-.99-.92-2.58.07-3.53h0c1-.96,2.58-.93,3.54.07h0c.96,1,.92,2.58-.07,3.53h0c-.49.47-1.11.7-1.73.7h0c-.66,0-1.31-.26-1.81-.77ZM1214.55,1181.3c-1.02-.93-1.09-2.51-.16-3.53h0c.93-1.02,2.52-1.09,3.54-.16h0c1.02.93,1.09,2.51.16,3.53h-.01c-.49.54-1.16.82-1.84.82h0c-.6,0-1.21-.22-1.69-.66ZM373.41,1180.82c-.93-1.02-.86-2.6.16-3.53h0c1.02-.93,2.6-.86,3.53.16h0c.93,1.02.86,2.6-.16,3.53h0c-.48.44-1.08.66-1.68.66h0c-.68,0-1.36-.28-1.85-.82ZM1224.59,1170.12c-1.05-.91-1.16-2.48-.25-3.53h0c.9-1.04,2.48-1.16,3.52-.25h0c1.05.9,1.16,2.48.26,3.53h0c-.5.57-1.2.86-1.9.86h0c-.58,0-1.16-.2-1.63-.61ZM363.39,1169.55h0c-.91-1.05-.79-2.63.25-3.53h0c1.05-.9,2.62-.79,3.53.26h0c.9,1.04.79,2.62-.26,3.52h0c-.47.41-1.05.61-1.63.61h0c-.7,0-1.4-.29-1.9-.86ZM1234.33,1158.67c-1.07-.87-1.22-2.45-.35-3.52h0c.88-1.06,2.46-1.22,3.52-.34h0c1.07.87,1.22,2.45.35,3.52h0c-.5.6-1.21.91-1.94.91h0c-.56,0-1.12-.19-1.58-.57ZM353.68,1158.01c-.87-1.06-.72-2.64.35-3.52h0c1.07-.87,2.64-.71,3.52.35h0c.87,1.07.72,2.65-.35,3.52h0c-.46.38-1.03.57-1.58.57h0c-.73,0-1.44-.31-1.94-.92ZM1243.76,1146.97c-1.09-.85-1.28-2.41-.43-3.51h0c.85-1.08,2.41-1.28,3.51-.43h0c1.08.85,1.28,2.42.43,3.51h0c-.49.63-1.23.96-1.97.96h0c-.54,0-1.08-.17-1.54-.53ZM344.28,1146.23c-.85-1.09-.65-2.66.44-3.51h0c1.09-.84,2.66-.65,3.51.44h0c.84,1.09.65,2.66-.44,3.51h0c-.46.36-1,.53-1.54.53h0c-.74,0-1.48-.33-1.97-.97ZM1252.89,1135.03c-1.11-.82-1.35-2.39-.53-3.5h0c.82-1.11,2.38-1.35,3.5-.53h0c1.11.82,1.34,2.39.53,3.5h0c-.49.66-1.25,1.02-2.02,1.02h0c-.51,0-1.03-.16-1.48-.49ZM335.19,1134.21c-.82-1.11-.58-2.68.53-3.49h0c1.11-.82,2.68-.59,3.5.53h0c.81,1.11.57,2.67-.54,3.49h0c-.44.33-.96.49-1.48.49h0c-.76,0-1.52-.35-2.01-1.02ZM1261.7,1122.84c-1.13-.79-1.41-2.34-.62-3.48h0c.79-1.13,2.35-1.41,3.48-.62h0c1.14.79,1.41,2.35.62,3.48h0c-.48.7-1.26,1.07-2.05,1.07h0c-.49,0-.99-.14-1.43-.45ZM326.42,1121.96c-.79-1.14-.51-2.7.62-3.48h0c1.14-.79,2.7-.51,3.48.62h0c.79,1.13.51,2.69-.62,3.48h0c-.44.3-.93.45-1.43.45h0c-.79,0-1.56-.38-2.05-1.07ZM1270.19,1110.43c-1.15-.76-1.47-2.31-.71-3.46h0c.76-1.16,2.31-1.48,3.46-.72h0c1.15.76,1.47,2.31.71,3.47h0c-.48.73-1.27,1.12-2.09,1.12h0c-.47,0-.94-.13-1.37-.41ZM317.98,1109.48c-.76-1.15-.44-2.7.71-3.46h0c1.15-.76,2.71-.44,3.46.71h0c.76,1.15.44,2.71-.71,3.47h0c-.43.27-.9.41-1.37.41h0c-.82,0-1.61-.4-2.09-1.13ZM1278.35,1097.79c-1.17-.73-1.53-2.27-.8-3.44h0c.72-1.17,2.27-1.53,3.44-.81h0c1.17.73,1.53,2.27.8,3.45h0c-.47.76-1.29,1.18-2.12,1.18h0c-.45,0-.91-.12-1.32-.38ZM309.87,1096.79c-.73-1.18-.37-2.72.8-3.45h0c1.18-.72,2.72-.36,3.45.81h0c.72,1.17.36,2.72-.81,3.44h0c-.41.26-.87.38-1.32.38h0c-.83,0-1.65-.42-2.12-1.18ZM1286.18,1084.94c-1.2-.69-1.6-2.23-.9-3.42h0c.7-1.19,2.23-1.59,3.42-.89h0c1.19.7,1.59,2.23.9,3.42h0c-.47.79-1.3,1.24-2.16,1.24h0c-.43,0-.87-.11-1.26-.35ZM302.1,1083.89c-.7-1.2-.3-2.73.89-3.42h0c1.2-.7,2.73-.3,3.42.89h0c.7,1.2.3,2.73-.89,3.42h0c-.4.23-.83.35-1.26.35h0c-.86,0-1.7-.45-2.16-1.24ZM1293.66,1071.89c-1.21-.67-1.65-2.19-.98-3.4h0c.66-1.21,2.18-1.65,3.39-.98h0c1.21.66,1.65,2.18.99,3.39h0c-.46.83-1.32,1.3-2.2,1.3h0c-.41,0-.82-.1-1.2-.31ZM294.67,1070.79h0c-.66-1.21-.22-2.73.99-3.39h0c1.21-.67,2.73-.23,3.39.98h0c.67,1.21.23,2.73-.98,3.4h0c-.39.21-.8.31-1.21.31h0c-.88,0-1.73-.47-2.19-1.3ZM1300.79,1058.64c-1.22-.64-1.7-2.14-1.07-3.37h0c.63-1.23,2.14-1.71,3.37-1.08h0c1.23.64,1.71,2.14,1.07,3.37h0c-.44.86-1.31,1.35-2.22,1.35h0c-.39,0-.78-.08-1.15-.27ZM287.6,1057.51c-.64-1.23-.16-2.74,1.07-3.37h0c1.23-.63,2.74-.15,3.37,1.07h0c.63,1.23.15,2.74-1.08,3.37h0c-.36.19-.76.28-1.14.28h0c-.91,0-1.78-.49-2.22-1.35ZM280.87,1044.04c-.6-1.24-.07-2.74,1.17-3.33h0c1.24-.61,2.74-.09,3.34,1.16h0c.6,1.24.08,2.74-1.17,3.34h0c-.35.17-.72.25-1.08.25h0c-.93,0-1.83-.52-2.26-1.42ZM1307.58,1045.2c-1.24-.6-1.76-2.1-1.16-3.34h0c.6-1.24,2.09-1.77,3.33-1.16h0c1.25.6,1.77,2.09,1.17,3.33h0c-.43.9-1.33,1.42-2.26,1.42h0c-.36,0-.73-.08-1.08-.25ZM274.51,1030.41h0c-.57-1.26,0-2.74,1.25-3.3h0c1.26-.57,2.74,0,3.31,1.25h0c.57,1.26.01,2.73-1.25,3.3h0c-.33.15-.68.22-1.03.22h0c-.95,0-1.86-.54-2.28-1.47ZM1314.01,1031.58c-1.26-.57-1.82-2.05-1.26-3.31h0c.57-1.26,2.05-1.82,3.31-1.25h0c1.26.57,1.82,2.05,1.25,3.31h0c-.41.92-1.32,1.47-2.28,1.47h0c-.34,0-.69-.07-1.02-.22ZM268.52,1016.62h0c-.54-1.27.06-2.74,1.34-3.27h0c1.27-.54,2.73.06,3.27,1.34h0c.53,1.27-.07,2.73-1.34,3.27h0c-.32.13-.64.19-.97.19h0c-.97,0-1.9-.57-2.3-1.53ZM1320.07,1017.79c-1.28-.53-1.88-2-1.34-3.27h0c.53-1.27,2-1.87,3.27-1.34h0c1.27.53,1.87,2,1.34,3.27h0c-.4.96-1.33,1.54-2.31,1.54h0c-.32,0-.65-.07-.96-.2ZM262.89,1002.68c-.5-1.29.14-2.74,1.43-3.24h0c1.28-.5,2.73.14,3.23,1.43h0c.5,1.28-.14,2.73-1.42,3.23h0c-.3.12-.61.17-.91.17h0c-1,0-1.95-.6-2.33-1.59ZM1325.76,1003.85c-1.29-.5-1.92-1.95-1.42-3.24h0c.49-1.29,1.94-1.93,3.23-1.43h0c1.29.5,1.93,1.95,1.43,3.24h0c-.39.99-1.33,1.6-2.33,1.6h0c-.3,0-.61-.06-.91-.17ZM257.61,988.54c-.46-1.3.22-2.73,1.52-3.19h0c1.3-.47,2.73.2,3.19,1.51h0c.47,1.3-.21,2.73-1.51,3.19h0c-.28.1-.56.15-.84.15h0c-1.03,0-1.99-.64-2.36-1.66ZM1331.09,989.75c-1.31-.47-1.98-1.9-1.52-3.2h0c.46-1.3,1.9-1.97,3.2-1.51h0c1.3.46,1.97,1.9,1.51,3.2h0c-.37,1.02-1.33,1.65-2.35,1.65h0c-.28,0-.57-.04-.84-.14ZM252.72,974.27c-.43-1.31.28-2.73,1.59-3.16h0c1.32-.43,2.73.29,3.16,1.6h0c.43,1.31-.28,2.72-1.6,3.16h0c-.25.08-.52.12-.78.12h0c-1.05,0-2.03-.67-2.37-1.72ZM1336.03,975.51c-1.31-.43-2.03-1.84-1.6-3.16h0c.43-1.31,1.85-2.02,3.16-1.59h0c1.31.43,2.02,1.84,1.6,3.15h0c-.35,1.05-1.33,1.72-2.38,1.72h0c-.26,0-.52-.04-.78-.12ZM248.2,959.87c-.39-1.32.36-2.71,1.68-3.11h0c1.33-.39,2.72.36,3.11,1.68h0c.4,1.32-.35,2.72-1.67,3.11h0c-.24.07-.48.11-.72.11h0c-1.08,0-2.07-.7-2.4-1.79ZM1340.58,961.19c-1.32-.39-2.07-1.79-1.68-3.11h0c.4-1.32,1.79-2.08,3.11-1.68h0c1.32.39,2.08,1.79,1.68,3.11h0c-.32,1.09-1.32,1.79-2.39,1.79h0c-.24,0-.48-.04-.72-.11ZM244.07,945.36c-.36-1.33.43-2.7,1.77-3.06h0c1.33-.36,2.7.42,3.06,1.76h0c.36,1.33-.43,2.7-1.76,3.06h0c-.22.06-.44.09-.65.09h0c-1.11,0-2.12-.73-2.42-1.85ZM1344.75,946.76c-1.34-.36-2.13-1.73-1.77-3.07h0c.36-1.33,1.73-2.12,3.07-1.76h0c1.33.36,2.12,1.73,1.76,3.07h0c-.3,1.11-1.31,1.85-2.41,1.85h0c-.22,0-.44-.03-.65-.09ZM240.33,930.74c-.32-1.34.5-2.69,1.84-3.01h0c1.34-.33,2.7.5,3.02,1.84h0c.32,1.34-.5,2.69-1.84,3.02h0c-.2.04-.4.07-.59.07h0c-1.13,0-2.15-.77-2.43-1.92ZM1348.53,932.22c-1.34-.33-2.17-1.68-1.84-3.02h0c.32-1.34,1.67-2.17,3.01-1.84h0c1.34.32,2.17,1.67,1.85,3.02h0c-.28,1.14-1.31,1.91-2.43,1.91h0c-.2,0-.39-.02-.59-.07ZM236.98,916.04c-.29-1.36.57-2.68,1.92-2.97h0c1.35-.29,2.68.57,2.97,1.92h0c.29,1.35-.57,2.68-1.93,2.97h0c-.17.04-.35.05-.52.05h0c-1.15,0-2.19-.8-2.44-1.97ZM1351.92,917.59c-1.35-.29-2.21-1.62-1.92-2.97h0c.29-1.35,1.62-2.21,2.96-1.92h0c1.36.28,2.22,1.61,1.93,2.96h0c-.25,1.18-1.29,1.98-2.44,1.98h0c-.18,0-.35-.02-.53-.05ZM234.02,901.24c-.26-1.36.64-2.66,2-2.91h0c1.35-.26,2.66.64,2.91,2h0c.25,1.35-.64,2.66-2,2.91h0c-.15.03-.31.05-.46.05h0c-1.18,0-2.23-.85-2.45-2.05ZM1354.93,902.87c-1.36-.25-2.26-1.56-2.01-2.92h0c.26-1.36,1.56-2.25,2.92-2h0c1.36.25,2.25,1.56,2,2.92h0c-.22,1.2-1.27,2.04-2.45,2.04h0c-.15,0-.31,0-.46-.04ZM231.45,886.37h0c-.22-1.36.71-2.64,2.07-2.86h0c1.37-.21,2.65.71,2.86,2.08h0c.22,1.36-.71,2.64-2.07,2.86h0c-.13.02-.27.03-.4.03h0c-1.21,0-2.27-.88-2.46-2.11ZM1357.54,888.07c-1.36-.21-2.29-1.49-2.08-2.86h0c.22-1.36,1.5-2.29,2.86-2.07h0c1.36.21,2.3,1.49,2.08,2.86h0c-.2,1.23-1.26,2.1-2.47,2.1h0c-.13,0-.26-.01-.39-.03ZM229.27,871.44c-.18-1.36.78-2.62,2.15-2.8h0c1.37-.18,2.63.78,2.81,2.15h0c.18,1.37-.78,2.62-2.15,2.81h0c-.11,0-.22.02-.33.02h0c-1.24,0-2.31-.92-2.48-2.18ZM1359.76,873.22c-1.37-.18-2.33-1.44-2.15-2.81h0c.18-1.37,1.43-2.33,2.8-2.15h0c1.37.18,2.33,1.44,2.15,2.81h0c-.16,1.25-1.24,2.17-2.47,2.17h0c-.11,0-.22,0-.33-.02ZM227.49,856.46c-.14-1.37.86-2.6,2.23-2.75h0c1.37-.14,2.6.86,2.75,2.23h0c.14,1.37-.86,2.6-2.23,2.75h0c-.09,0-.18,0-.26,0h0c-1.27,0-2.35-.95-2.49-2.24ZM1361.59,858.31c-1.38-.15-2.38-1.38-2.23-2.75h0c.14-1.37,1.37-2.37,2.75-2.23h0c1.37.15,2.36,1.38,2.22,2.75h0c-.13,1.29-1.22,2.24-2.48,2.24h0c-.09,0-.18,0-.26,0ZM226.11,841.44c-.11-1.37.92-2.58,2.3-2.69h0c1.37-.11,2.58.92,2.69,2.3h0c.1,1.37-.92,2.58-2.3,2.69h0c-.07,0-.13,0-.2,0h0c-1.29,0-2.39-1-2.49-2.31ZM1363.02,843.35c-1.38-.1-2.41-1.31-2.3-2.68h0c.11-1.38,1.31-2.41,2.69-2.3h0c1.38.11,2.41,1.31,2.3,2.69h0c-.11,1.31-1.2,2.3-2.49,2.3h0c-.07,0-.13,0-.2,0ZM225.12,826.39c-.07-1.38.98-2.56,2.37-2.63h0c1.37-.07,2.55.99,2.62,2.36h0c.08,1.38-.98,2.56-2.36,2.63h-.14c-1.32,0-2.42-1.03-2.49-2.36ZM1364.06,828.37c-1.38-.07-2.44-1.25-2.36-2.63h0c.08-1.38,1.25-2.44,2.63-2.36h0c1.38.07,2.44,1.24,2.37,2.62h0c-.07,1.34-1.18,2.37-2.5,2.37h-.13ZM224.52,811.31c-.03-1.38,1.05-2.53,2.44-2.57h0c1.38-.03,2.52,1.06,2.56,2.44h0c.04,1.38-1.05,2.53-2.43,2.56h-.07c-1.35,0-2.46-1.07-2.5-2.43ZM1364.71,813.36c-1.38-.03-2.47-1.18-2.43-2.56h0c.03-1.38,1.18-2.47,2.56-2.44h0c1.38.04,2.47,1.19,2.43,2.57h0c-.03,1.36-1.14,2.43-2.5,2.43h-.06ZM224.32,796.22c0-1.38,1.12-2.5,2.5-2.5h0c1.38,0,2.5,1.12,2.5,2.5h0c0,1.38-1.12,2.5-2.5,2.5h0c-1.38,0-2.5-1.12-2.5-2.5ZM1362.47,795.84c0-.13,0-.25.03-.37h0c-.02-.13-.03-.25-.03-.38h0c0-1.38,1.11-2.5,2.49-2.5h0c1.38,0,2.5,1.11,2.51,2.49h0c0,.13,0,.26-.03.38h0c.02.13.03.25.03.38h0c0,1.38-1.12,2.5-2.5,2.5h0c-1.38,0-2.5-1.12-2.5-2.5ZM1362.47,795.09h0ZM226.94,783.7c-1.38-.03-2.47-1.18-2.44-2.56h0c.04-1.38,1.18-2.47,2.57-2.44h0c1.38.04,2.46,1.18,2.43,2.57h0c-.03,1.35-1.15,2.43-2.5,2.43h-.06ZM1362.26,780.13c-.04-1.38,1.05-2.53,2.43-2.56h0c1.38-.04,2.53,1.05,2.56,2.43h0c.04,1.38-1.05,2.53-2.43,2.57h-.07c-1.35,0-2.46-1.08-2.49-2.44ZM227.45,768.69c-1.38-.07-2.44-1.25-2.37-2.63h0c.07-1.38,1.24-2.44,2.63-2.37h0c1.37.07,2.43,1.25,2.36,2.63h0c-.07,1.33-1.17,2.37-2.49,2.37h-.13ZM1361.66,765.19h0c-.07-1.38.99-2.56,2.37-2.63h0c1.38-.08,2.55.98,2.63,2.36h0c.07,1.38-.99,2.56-2.37,2.63h0s-.09,0-.13,0h0c-1.32,0-2.43-1.04-2.49-2.37ZM228.35,753.69c-1.38-.1-2.41-1.31-2.3-2.68h0c.11-1.38,1.31-2.41,2.69-2.3h0c1.37.11,2.4,1.31,2.29,2.68h0c-.1,1.32-1.19,2.31-2.48,2.31h0c-.07,0-.13,0-.2,0ZM1360.66,750.27h0c-.11-1.38.92-2.59,2.3-2.69h0c1.37-.11,2.58.91,2.69,2.29h0c.11,1.38-.92,2.58-2.3,2.69h0c-.06,0-.13,0-.2,0h0c-1.29,0-2.38-1-2.49-2.3ZM229.64,738.73c-1.37-.15-2.37-1.37-2.23-2.75h0c.14-1.37,1.37-2.37,2.74-2.22h0c1.37.14,2.37,1.37,2.23,2.74h0c-.14,1.29-1.22,2.24-2.49,2.24h0c-.08,0-.17,0-.26,0ZM1359.28,735.37c-.15-1.37.85-2.6,2.22-2.75h0c1.38-.14,2.61.85,2.75,2.23h0c.15,1.37-.85,2.6-2.22,2.75h0c-.09,0-.18,0-.27,0h0c-1.26,0-2.34-.95-2.48-2.24ZM231.33,723.8c-1.37-.18-2.34-1.43-2.16-2.8h0c.18-1.37,1.44-2.34,2.81-2.16h0c1.36.18,2.33,1.44,2.15,2.81h0c-.16,1.26-1.24,2.17-2.48,2.17h0c-.1,0-.21,0-.32-.02ZM1357.51,720.52c-.18-1.36.78-2.62,2.15-2.8h0c1.36-.19,2.62.78,2.8,2.15h0c.19,1.37-.78,2.62-2.14,2.81h0c-.12,0-.23.02-.34.02h0c-1.23,0-2.31-.92-2.47-2.18ZM233.41,708.92c-1.37-.21-2.3-1.49-2.08-2.85h0c.21-1.37,1.49-2.3,2.86-2.09h0c1.36.22,2.29,1.5,2.08,2.86h0c-.2,1.24-1.26,2.11-2.47,2.11h0c-.13,0-.26,0-.39-.03ZM1355.34,705.73c-.22-1.37.71-2.65,2.08-2.87h0c1.36-.21,2.64.72,2.86,2.08h0c.22,1.36-.71,2.64-2.07,2.86h0c-.14.02-.27.03-.4.03h0c-1.21,0-2.27-.87-2.47-2.1ZM235.88,694.11c-1.36-.25-2.25-1.56-2-2.92h0c.25-1.36,1.55-2.25,2.91-2h0c1.36.25,2.25,1.56,2,2.91h0c-.22,1.21-1.27,2.05-2.45,2.05h0c-.15,0-.31-.02-.46-.04ZM1352.79,690.99c-.26-1.35.64-2.66,2-2.91h0c1.35-.26,2.66.64,2.91,1.99h0c.26,1.36-.64,2.66-2,2.92h0c-.15.03-.31.04-.46.04h0c-1.18,0-2.23-.83-2.45-2.04ZM238.74,679.36c-1.35-.29-2.21-1.61-1.92-2.97h0c.28-1.35,1.61-2.21,2.96-1.92h0c1.35.29,2.22,1.61,1.93,2.97h0c-.25,1.17-1.29,1.98-2.45,1.98h0c-.17,0-.34-.02-.52-.06ZM1349.84,676.33h0c-.29-1.35.57-2.68,1.92-2.97h0c1.35-.29,2.68.57,2.97,1.92h0c.29,1.35-.57,2.68-1.92,2.97h0c-.18.04-.35.06-.53.06h0c-1.15,0-2.19-.81-2.44-1.98ZM242,664.7c-1.35-.33-2.17-1.68-1.85-3.02h0c.32-1.34,1.67-2.17,3.02-1.85h0c1.34.33,2.16,1.68,1.84,3.02h0c-.27,1.15-1.3,1.91-2.43,1.91h0c-.19,0-.39-.02-.58-.06ZM1346.51,661.75c-.33-1.34.5-2.69,1.84-3.02h0c1.34-.32,2.69.5,3.02,1.84h0c.32,1.35-.5,2.7-1.84,3.02h0c-.2.05-.4.07-.59.07h0c-1.13,0-2.15-.76-2.43-1.91ZM245.64,650.12c-1.33-.36-2.12-1.73-1.76-3.06h0c.35-1.34,1.72-2.13,3.06-1.77h0c1.33.36,2.12,1.73,1.76,3.07h0c-.3,1.11-1.31,1.85-2.41,1.85h0c-.22,0-.43-.03-.65-.09ZM1342.79,647.27c-.36-1.33.43-2.71,1.76-3.07h0c1.33-.36,2.7.43,3.07,1.76h0c.36,1.33-.43,2.71-1.76,3.07h0c-.22.06-.44.09-.66.09h0c-1.1,0-2.11-.74-2.41-1.85ZM249.67,635.65c-1.32-.4-2.08-1.79-1.68-3.11h0c.39-1.33,1.78-2.08,3.11-1.68h0c1.32.39,2.07,1.78,1.68,3.11h0c-.33,1.08-1.32,1.78-2.4,1.78h0c-.23,0-.47-.03-.71-.1ZM1338.69,632.89c-.4-1.32.35-2.72,1.67-3.12h0c1.32-.39,2.72.36,3.12,1.68h0c.39,1.33-.36,2.72-1.68,3.11h0c-.24.08-.48.11-.72.11h0c-1.08,0-2.07-.7-2.39-1.78ZM254.08,621.29c-1.31-.43-2.03-1.84-1.6-3.15h0c.43-1.31,1.84-2.03,3.16-1.6h0c1.31.43,2.02,1.84,1.6,3.15h0c-.35,1.05-1.33,1.72-2.38,1.72h0c-.26,0-.52-.04-.78-.12ZM1334.2,618.62c-.43-1.31.29-2.72,1.6-3.16h0c1.31-.43,2.72.29,3.15,1.6h0c.43,1.31-.28,2.72-1.59,3.15h0c-.26.09-.52.13-.78.13h0c-1.05,0-2.03-.67-2.38-1.72ZM258.89,607c-1.3-.46-1.98-1.89-1.51-3.19h0c.46-1.3,1.89-1.98,3.19-1.52h0c1.3.47,1.98,1.9,1.52,3.2h0c-.37,1.02-1.33,1.66-2.36,1.66h0c-.28,0-.56-.05-.84-.15ZM1329.34,604.48c-.47-1.3.21-2.73,1.51-3.2h0c1.3-.47,2.73.21,3.19,1.51h0c.47,1.3-.2,2.73-1.5,3.2h0c-.28.1-.57.15-.85.15h0c-1.02,0-1.99-.64-2.35-1.66ZM264.08,592.86c-1.29-.5-1.93-1.95-1.43-3.24h0c.5-1.29,1.95-1.93,3.24-1.43h0c1.28.5,1.92,1.95,1.43,3.24h0c-.39.99-1.33,1.6-2.34,1.59h0c-.3,0-.6-.05-.9-.16ZM1324.1,590.47h0c-.5-1.29.14-2.73,1.42-3.24h0c1.29-.5,2.74.14,3.24,1.43h0c.5,1.28-.14,2.73-1.42,3.23h0c-.3.12-.61.17-.91.17h0c-1,0-1.94-.6-2.33-1.59ZM269.64,578.85c-1.27-.53-1.87-1.99-1.34-3.27h0c.53-1.27,2-1.87,3.27-1.34h0c1.27.54,1.88,2,1.34,3.27h0c-.4.96-1.33,1.54-2.3,1.54h0c-.32,0-.65-.06-.97-.2ZM1318.51,576.65c-.53-1.27.07-2.73,1.34-3.27h0c1.27-.53,2.74.07,3.28,1.34h0c.53,1.27-.07,2.74-1.34,3.27h0c-.32.13-.65.2-.97.2h0c-.98,0-1.9-.58-2.31-1.54ZM275.57,565.01c-1.26-.57-1.82-2.05-1.25-3.3h0c.57-1.26,2.04-1.83,3.31-1.26h0c1.26.57,1.82,2.05,1.25,3.31h0c-.42.92-1.33,1.47-2.28,1.47h0c-.35,0-.69-.07-1.03-.22ZM1312.56,562.99c-.57-1.26,0-2.74,1.25-3.31h0c1.26-.57,2.74,0,3.31,1.25h0c.57,1.26.01,2.74-1.25,3.31h0c-.34.15-.69.22-1.03.22h0c-.95,0-1.86-.55-2.28-1.47ZM281.87,551.33c-1.24-.6-1.77-2.09-1.17-3.33h0c.6-1.25,2.1-1.77,3.34-1.17h0c1.25.6,1.77,2.09,1.17,3.34h0c-.43.89-1.33,1.41-2.26,1.41h0c-.36,0-.73-.08-1.08-.25ZM1306.25,549.48c-.6-1.24-.08-2.74,1.16-3.34h0c1.24-.6,2.74-.08,3.34,1.16h0c.6,1.25.08,2.74-1.16,3.34h0c-.35.17-.73.25-1.09.25h0c-.93,0-1.82-.52-2.25-1.41ZM288.53,537.83c-1.23-.63-1.71-2.14-1.08-3.37h0c.63-1.23,2.14-1.71,3.36-1.07h0c1.23.63,1.72,2.13,1.08,3.36h0c-.44.86-1.31,1.36-2.22,1.36h0c-.39,0-.78-.09-1.14-.28ZM1299.58,536.14h0c-.64-1.23-.16-2.73,1.07-3.37h0c1.23-.63,2.74-.15,3.37,1.07h0c.63,1.23.15,2.74-1.07,3.37h0c-.37.19-.76.28-1.15.28h0c-.91,0-1.78-.49-2.22-1.35ZM295.54,524.51c-1.21-.66-1.66-2.18-.99-3.39h0c.66-1.21,2.18-1.66,3.39-.99h0c1.22.66,1.66,2.18.99,3.39h0c-.45.83-1.31,1.3-2.19,1.3h0c-.41,0-.82-.1-1.2-.31ZM1292.55,522.98c-.66-1.21-.22-2.73.99-3.4h0c1.21-.67,2.73-.23,3.39.98h0c.67,1.21.23,2.73-.98,3.4h0c-.38.21-.79.31-1.2.31h0c-.89,0-1.74-.47-2.2-1.29ZM302.9,511.39c-1.2-.7-1.6-2.23-.9-3.42h0c.7-1.2,2.23-1.6,3.42-.9h0c1.19.69,1.59,2.22.9,3.42h0c-.47.79-1.31,1.24-2.16,1.24h0c-.43,0-.87-.11-1.26-.34ZM1285.18,510c-.69-1.19-.29-2.72.9-3.42h0c1.19-.7,2.72-.3,3.42.89h0c.7,1.19.3,2.73-.89,3.42h0c-.4.24-.84.35-1.27.35h0c-.85,0-1.69-.45-2.16-1.24ZM310.6,498.46c-1.17-.73-1.54-2.27-.81-3.44h0c.73-1.17,2.27-1.53,3.45-.81h0c1.17.73,1.53,2.27.8,3.45h0c-.47.76-1.29,1.18-2.13,1.18h0c-.45,0-.9-.12-1.31-.38ZM1277.47,497.22h0c-.73-1.17-.37-2.72.81-3.45h0c1.17-.72,2.71-.36,3.44.81h0c.73,1.17.37,2.71-.8,3.44h0c-.41.26-.87.38-1.32.38h0c-.84,0-1.65-.42-2.13-1.18ZM318.64,485.75c-1.16-.76-1.47-2.31-.72-3.46h0c.76-1.16,2.31-1.48,3.47-.72h0c1.15.76,1.47,2.31.71,3.46h0c-.48.74-1.28,1.13-2.09,1.13h0c-.47,0-.95-.13-1.37-.41ZM1269.43,484.64c-.76-1.15-.44-2.7.71-3.46h0c1.15-.76,2.7-.44,3.46.71h0c.76,1.15.44,2.7-.71,3.46h0c-.42.28-.9.42-1.37.42h0c-.82,0-1.61-.4-2.09-1.13ZM327.01,473.25c-1.13-.78-1.41-2.34-.62-3.47h0c.78-1.14,2.34-1.42,3.48-.63h0c1.13.79,1.41,2.35.62,3.48h0c-.48.7-1.26,1.07-2.05,1.07h0c-.5,0-.99-.14-1.43-.45ZM1261.05,472.28h0c-.79-1.14-.51-2.69.62-3.48h0c1.13-.79,2.69-.51,3.48.62h0c.79,1.13.51,2.69-.62,3.48h0c-.44.3-.93.45-1.43.45h0c-.79,0-1.56-.37-2.05-1.07ZM335.71,460.99c-1.12-.82-1.35-2.38-.54-3.5h0c.82-1.11,2.39-1.35,3.5-.53h0c1.11.82,1.35,2.39.53,3.5h0c-.49.66-1.25,1.02-2.01,1.02h0c-.52,0-1.04-.16-1.48-.49ZM1252.35,460.14h0c-.82-1.12-.58-2.68.53-3.5h0c1.11-.82,2.68-.58,3.49.53h.01c.81,1.11.58,2.68-.54,3.5h0c-.44.33-.96.49-1.47.49h0c-.77,0-1.53-.36-2.02-1.02ZM344.72,448.96c-1.09-.85-1.29-2.42-.44-3.51h0c.85-1.09,2.42-1.29,3.51-.44h0c1.09.85,1.29,2.42.44,3.51h0c-.49.63-1.23.96-1.98.96h0c-.53,0-1.07-.17-1.53-.52ZM1243.33,448.23h0c-.85-1.09-.65-2.66.44-3.51h0c1.09-.85,2.66-.66,3.51.44h0c.84,1.09.65,2.66-.44,3.5h0c-.46.36-1,.53-1.53.53h0c-.75,0-1.49-.33-1.98-.96ZM354.05,437.17c-1.07-.88-1.23-2.45-.35-3.52h0c.88-1.07,2.45-1.22,3.52-.35h0c1.07.88,1.22,2.46.35,3.52h0c-.5.61-1.22.92-1.94.92h0c-.56,0-1.12-.19-1.58-.57ZM1234,436.55h0c-.88-1.06-.72-2.64.35-3.52h0c1.06-.87,2.64-.72,3.52.35h0c.87,1.07.72,2.64-.35,3.52h0c-.47.38-1.03.57-1.59.57h0c-.72,0-1.44-.32-1.93-.92ZM363.68,425.63c-1.05-.9-1.16-2.48-.26-3.52h0c.9-1.05,2.49-1.16,3.53-.26h0c1.04.91,1.16,2.48.26,3.53h0c-.49.57-1.19.86-1.89.86h0c-.58,0-1.16-.2-1.63-.61ZM1224.37,425.13h0c-.9-1.05-.79-2.63.26-3.53h0c1.04-.9,2.62-.79,3.52.25h0c.91,1.05.8,2.63-.25,3.53h0c-.47.41-1.05.61-1.63.61h0c-.7,0-1.4-.29-1.89-.86ZM373.61,414.35c-1.02-.92-1.1-2.51-.17-3.53h0c.94-1.02,2.52-1.09,3.54-.16h0c1.02.93,1.09,2.51.16,3.53h0c-.49.54-1.17.82-1.85.82h0c-.6,0-1.2-.22-1.68-.66ZM1214.43,413.96c-.93-1.02-.86-2.6.16-3.54h0c1.02-.93,2.6-.86,3.54.17h-.01c.93,1.01.86,2.6-.16,3.53h0c-.47.43-1.08.65-1.68.65h0c-.68,0-1.35-.27-1.85-.81ZM383.83,403.34c-1-.95-1.03-2.54-.07-3.53h0c.95-1,2.54-1.03,3.53-.07h0c1,.96,1.03,2.54.07,3.53h0c-.49.51-1.14.77-1.8.77h0c-.62,0-1.25-.23-1.73-.7ZM1204.21,403.05h0c-.96-1-.93-2.58.07-3.54h0c.99-.95,2.57-.92,3.53.07h0c.96,1,.93,2.58-.07,3.53h0c-.48.47-1.11.7-1.73.7h0c-.66,0-1.31-.25-1.8-.76ZM394.33,392.61c-.97-.99-.96-2.57.02-3.54h0c.98-.97,2.57-.96,3.54.02h0c.97.99.96,2.57-.02,3.54h0c-.49.48-1.13.72-1.76.72h0c-.65,0-1.29-.25-1.78-.74ZM1193.7,392.41c-.98-.97-.99-2.55-.03-3.54h0c.97-.98,2.56-.99,3.54-.02h0c.98.97.99,2.55.02,3.53h0c-.49.5-1.13.75-1.78.75h0c-.63,0-1.26-.24-1.75-.72ZM405.11,382.15c-.94-1.01-.89-2.59.12-3.53h0c1-.95,2.59-.9,3.53.11h0c.94,1.01.89,2.59-.12,3.53h0c-.48.45-1.09.68-1.71.68h0c-.66,0-1.33-.27-1.82-.79ZM1182.91,382.05c-1.01-.95-1.06-2.53-.12-3.54h0c.95-1.01,2.53-1.06,3.54-.11h0c1.01.94,1.06,2.52.12,3.53h0c-.5.53-1.16.79-1.83.79h0c-.61,0-1.23-.22-1.71-.67ZM416.16,371.98c-.92-1.03-.83-2.61.21-3.53h0c1.03-.92,2.61-.82,3.53.21h0c.91,1.03.82,2.61-.21,3.53h0c-.48.42-1.07.63-1.66.63h0c-.69,0-1.38-.29-1.87-.84ZM1171.86,371.97h0c-1.04-.92-1.13-2.5-.21-3.53h0c.91-1.03,2.49-1.13,3.53-.21h0c1.03.92,1.12,2.5.2,3.53h0c-.49.56-1.18.84-1.87.84h0c-.59,0-1.18-.21-1.65-.63ZM427.47,362.11c-.89-1.06-.76-2.64.3-3.53h0c1.05-.89,2.63-.75,3.52.3h0c.89,1.06.76,2.64-.3,3.53h0c-.47.39-1.04.59-1.61.58h0c-.71,0-1.42-.3-1.91-.88ZM1160.54,362.19c-1.06-.89-1.2-2.47-.3-3.52h0c.88-1.06,2.46-1.2,3.52-.31h0c1.05.89,1.19,2.47.3,3.52h0c-.49.59-1.2.89-1.91.89h0c-.57,0-1.14-.19-1.61-.58ZM439.03,352.53c-.86-1.08-.69-2.65.39-3.51h0c1.08-.86,2.65-.69,3.52.39h0c.86,1.08.68,2.65-.4,3.52h0c-.46.36-1.01.54-1.56.54h0c-.73,0-1.46-.32-1.95-.94ZM1148.96,352.7c-1.08-.86-1.25-2.43-.39-3.51h0c.86-1.08,2.43-1.26,3.51-.4h0c1.08.86,1.26,2.44.4,3.52h0c-.5.62-1.22.94-1.96.94h0c-.55,0-1.1-.18-1.56-.55ZM450.84,343.27c-.84-1.1-.62-2.67.48-3.5h0c1.1-.84,2.67-.62,3.5.48h0c.84,1.1.62,2.67-.48,3.5h0c-.45.35-.98.51-1.51.51h0c-.75,0-1.5-.34-1.99-.99ZM1137.14,343.52c-1.1-.83-1.32-2.4-.48-3.5h0c.83-1.1,2.39-1.32,3.5-.49h0c1.1.84,1.32,2.4.48,3.51h0c-.49.65-1.23.99-1.99.99h0c-.53,0-1.06-.17-1.51-.51ZM462.88,334.32c-.8-1.12-.55-2.68.58-3.49h0c1.12-.8,2.68-.54,3.49.58h0c.8,1.12.54,2.68-.58,3.49h0c-.44.31-.95.47-1.46.47h0c-.77,0-1.54-.37-2.03-1.05ZM1125.08,334.66h0c-1.12-.81-1.38-2.37-.58-3.49h0c.81-1.12,2.37-1.38,3.49-.58h0c1.12.8,1.38,2.36.58,3.49h0c-.49.68-1.26,1.04-2.04,1.04h0c-.5,0-1.01-.15-1.45-.46ZM475.15,325.69c-.77-1.14-.47-2.69.67-3.47h0c1.14-.77,2.7-.47,3.47.67h0c.78,1.14.48,2.7-.67,3.47h0c-.43.29-.91.43-1.39.43h0c-.81,0-1.59-.38-2.08-1.1ZM1112.79,326.11c-1.14-.77-1.44-2.33-.67-3.47h0c.77-1.14,2.33-1.45,3.47-.67h0c1.15.77,1.44,2.32.67,3.47h0c-.48.71-1.27,1.1-2.07,1.1h0c-.48,0-.97-.14-1.4-.43ZM487.64,317.39c-.74-1.16-.4-2.71.76-3.45h0c1.17-.74,2.71-.4,3.46.76h0c.74,1.16.4,2.71-.76,3.45h0c-.42.27-.88.4-1.35.4h0c-.82,0-1.63-.41-2.11-1.16ZM1100.28,317.89c-1.17-.74-1.51-2.29-.77-3.45h0c.74-1.17,2.29-1.51,3.46-.77h0c1.16.75,1.5,2.29.76,3.45h0c-.48.75-1.29,1.16-2.11,1.16h0c-.46,0-.93-.13-1.34-.39ZM500.35,309.43c-.71-1.19-.33-2.72.85-3.44h0c1.18-.71,2.72-.33,3.43.86h0c.71,1.18.33,2.71-.85,3.43h0c-.4.24-.85.36-1.29.36h0c-.85,0-1.67-.43-2.14-1.21ZM1087.54,310c-1.18-.71-1.56-2.25-.85-3.43h0c.71-1.19,2.25-1.57,3.43-.86h0c1.19.72,1.57,2.25.86,3.44h0c-.47.77-1.3,1.21-2.15,1.21h0c-.44,0-.88-.12-1.29-.36ZM513.25,301.8c-.68-1.2-.26-2.73.94-3.41h0c1.21-.68,2.73-.26,3.41.94h0c.68,1.2.26,2.73-.94,3.41h0c-.39.22-.81.33-1.23.33h0c-.87,0-1.72-.46-2.18-1.27ZM1074.61,302.45h0c-1.21-.69-1.63-2.21-.95-3.41h0c.68-1.2,2.21-1.62,3.41-.95h0c1.2.68,1.62,2.21.95,3.41h0c-.47.81-1.31,1.27-2.19,1.27h0c-.41,0-.83-.1-1.22-.32ZM526.35,294.52c-.65-1.22-.19-2.74,1.03-3.38h0c1.22-.65,2.74-.19,3.39,1.03h0c.65,1.21.18,2.73-1.03,3.38h0c-.38.2-.78.29-1.18.29h0c-.89,0-1.76-.48-2.21-1.32ZM1061.47,295.24h0c-1.22-.65-1.68-2.16-1.03-3.38h0c.65-1.22,2.16-1.69,3.38-1.04h0c1.22.65,1.68,2.16,1.03,3.38h0c-.45.85-1.31,1.33-2.21,1.33h0c-.39,0-.79-.09-1.17-.29ZM539.64,287.59c-.62-1.24-.12-2.74,1.12-3.36h0c1.23-.62,2.73-.11,3.35,1.12h0c.62,1.23.11,2.74-1.12,3.35h0c-.36.18-.74.27-1.12.27h0c-.91,0-1.8-.51-2.23-1.38ZM1048.15,288.38h0c-1.24-.61-1.74-2.12-1.13-3.35h0c.62-1.24,2.12-1.74,3.36-1.13h0c1.23.62,1.74,2.12,1.12,3.36h0c-.44.88-1.32,1.38-2.24,1.38h0c-.38,0-.76-.08-1.11-.26ZM553.1,281.01c-.59-1.25-.05-2.74,1.2-3.32h0c1.25-.59,2.74-.05,3.32,1.2h0c.59,1.25.05,2.74-1.2,3.33h0c-.34.16-.7.23-1.06.23h0c-.94,0-1.84-.53-2.26-1.44ZM1034.64,281.88c-1.25-.59-1.79-2.07-1.21-3.33h0c.58-1.25,2.07-1.79,3.32-1.21h0c1.25.59,1.79,2.07,1.21,3.32h0c-.42.91-1.32,1.45-2.27,1.45h0c-.35,0-.71-.07-1.05-.23ZM566.72,274.79c-.55-1.26.03-2.74,1.29-3.29h0c1.27-.55,2.74.03,3.29,1.3h0c.56,1.26-.03,2.73-1.29,3.28h0c-.33.15-.66.21-1,.21h0c-.96,0-1.88-.56-2.29-1.5ZM1020.97,275.73h0c-1.26-.55-1.84-2.02-1.3-3.29h0c.55-1.26,2.03-1.84,3.29-1.3h0c1.27.55,1.85,2.02,1.3,3.29h0c-.41.95-1.33,1.51-2.29,1.51h0c-.33,0-.67-.07-.99-.21ZM580.5,268.94c-.52-1.28.1-2.74,1.38-3.26h0c1.28-.51,2.74.11,3.25,1.38h0c.52,1.28-.1,2.74-1.38,3.26h0c-.3.12-.62.18-.93.18h0c-.99,0-1.93-.59-2.32-1.56ZM1007.13,269.95c-1.29-.51-1.9-1.97-1.39-3.25h0c.51-1.28,1.97-1.9,3.25-1.39h0c1.28.52,1.9,1.98,1.39,3.26h0c-.39.97-1.33,1.56-2.32,1.56h0c-.31,0-.63-.05-.93-.18ZM594.48,263.44c-.49-1.3.17-2.74,1.46-3.22h0c1.3-.49,2.74.17,3.22,1.46h0c.48,1.3-.17,2.74-1.47,3.22h0c-.29.11-.58.16-.87.16h0c-1.02,0-1.97-.62-2.34-1.62ZM993.14,264.54c-1.3-.48-1.96-1.92-1.48-3.21h0c.48-1.29,1.92-1.95,3.22-1.47h0c1.29.48,1.95,1.92,1.47,3.21h0c-.37,1.01-1.33,1.63-2.34,1.63h0c-.29,0-.59-.05-.87-.16ZM608.59,258.3c-.45-1.3.25-2.72,1.56-3.17h0c1.3-.45,2.72.24,3.17,1.55h0c.45,1.3-.24,2.73-1.55,3.18h0c-.27.09-.54.13-.81.13h0c-1.04,0-2.01-.65-2.37-1.69ZM979,259.51c-1.31-.45-2-1.87-1.56-3.18h0c.45-1.3,1.87-2,3.18-1.55h0c1.3.44,2,1.86,1.55,3.17h0c-.35,1.04-1.32,1.69-2.36,1.69h0c-.27,0-.54-.04-.81-.13ZM622.84,253.55c-.41-1.32.32-2.72,1.64-3.13h0c1.32-.42,2.72.32,3.14,1.63h0c.41,1.32-.33,2.72-1.64,3.14h0c-.25.08-.5.11-.75.11h0c-1.06,0-2.05-.68-2.39-1.75ZM964.73,254.85c-1.31-.41-2.05-1.81-1.64-3.13h0c.41-1.32,1.81-2.05,3.13-1.64h0c1.32.41,2.06,1.81,1.65,3.13h0c-.34,1.07-1.33,1.75-2.39,1.75h0c-.25,0-.5-.03-.75-.11ZM637.21,249.18c-.37-1.33.4-2.71,1.72-3.09h0c1.33-.38,2.72.39,3.09,1.72h0c.38,1.32-.39,2.71-1.71,3.09h0c-.23.06-.46.09-.69.09h0c-1.09,0-2.09-.71-2.41-1.81ZM950.4,250.59h0c-1.33-.38-2.1-1.76-1.73-3.09h0c.38-1.33,1.76-2.1,3.09-1.72h0c1.33.37,2.1,1.75,1.72,3.08h0c-.31,1.1-1.31,1.82-2.4,1.82h0c-.22,0-.45-.03-.68-.09ZM651.7,245.19c-.34-1.34.46-2.7,1.8-3.04h0c1.33-.34,2.7.46,3.04,1.8h0c.34,1.33-.46,2.7-1.8,3.04h0c-.21.05-.42.08-.62.08h0c-1.12,0-2.13-.75-2.42-1.88ZM935.95,246.71c-1.33-.34-2.14-1.7-1.8-3.04h0c.34-1.34,1.7-2.15,3.04-1.8h0c1.33.33,2.14,1.7,1.8,3.04h0c-.29,1.13-1.3,1.88-2.42,1.88h0c-.2,0-.41-.03-.62-.08ZM666.28,241.59c-.31-1.35.54-2.69,1.88-3h0c1.35-.3,2.69.54,3,1.88h0c.3,1.35-.54,2.69-1.89,3h0c-.18.04-.37.06-.55.06h0c-1.15,0-2.18-.78-2.44-1.94ZM921.41,243.22h0c-1.35-.31-2.19-1.64-1.88-2.99h0c.3-1.35,1.64-2.19,2.99-1.89h0c1.35.31,2.19,1.64,1.89,2.99h0c-.26,1.16-1.29,1.95-2.44,1.95h0c-.18,0-.36-.02-.55-.06ZM680.95,238.37c-.27-1.35.61-2.67,1.96-2.94h0c1.36-.27,2.67.61,2.95,1.96h0c.27,1.36-.61,2.67-1.96,2.94h0c-.17.04-.33.05-.5.05h0c-1.16,0-2.21-.82-2.45-2.01ZM906.78,240.11h0c-1.35-.27-2.23-1.58-1.96-2.94h0c.27-1.35,1.58-2.23,2.93-1.96h0c1.36.27,2.24,1.58,1.97,2.94h0c-.23,1.19-1.28,2.01-2.45,2.01h0c-.16,0-.32-.02-.49-.05ZM695.71,235.55c-.24-1.36.67-2.65,2.03-2.89h0c1.36-.23,2.66.68,2.9,2.04h0c.23,1.36-.68,2.65-2.04,2.89h0c-.15.02-.29.04-.43.04h0c-1.2,0-2.25-.86-2.46-2.08ZM892.08,237.4c-1.36-.24-2.28-1.53-2.05-2.89h0c.23-1.36,1.53-2.27,2.89-2.04h0c1.36.23,2.28,1.53,2.04,2.89h0c-.21,1.21-1.26,2.07-2.46,2.07h0c-.14,0-.28,0-.42-.03ZM710.53,233.12c-.2-1.37.75-2.63,2.11-2.83h0c1.37-.2,2.64.74,2.84,2.11h0c.2,1.37-.75,2.63-2.11,2.83h0c-.13.02-.25.03-.37.03h0c-1.22,0-2.29-.9-2.47-2.14ZM877.3,235.07c-1.36-.2-2.31-1.46-2.12-2.83h0c.2-1.37,1.47-2.31,2.83-2.12h0c1.37.2,2.32,1.47,2.12,2.83h0c-.18,1.25-1.25,2.15-2.47,2.15h0c-.12,0-.24,0-.36-.03ZM725.41,231.08c-.16-1.37.82-2.61,2.19-2.78h0c1.37-.16,2.62.82,2.78,2.19h0c.16,1.37-.82,2.62-2.19,2.78h0c-.1,0-.2.02-.3.02h0c-1.25,0-2.33-.94-2.48-2.21ZM862.47,233.14c-1.37-.16-2.35-1.4-2.19-2.78h0c.16-1.37,1.4-2.35,2.77-2.19h0c1.38.16,2.36,1.4,2.19,2.78h0c-.14,1.27-1.22,2.2-2.47,2.2h0c-.1,0-.2,0-.3-.01ZM740.34,229.44c-.12-1.38.89-2.6,2.26-2.72h0c1.38-.13,2.6.88,2.72,2.26h0c.13,1.37-.88,2.59-2.26,2.72h0c-.07.01-.15.01-.23.01h0c-1.28,0-2.37-.97-2.49-2.27ZM847.6,231.6h0c-1.38-.13-2.39-1.35-2.27-2.72h0c.13-1.38,1.34-2.39,2.72-2.27h0c1.37.13,2.39,1.34,2.26,2.72h0c-.12,1.3-1.21,2.28-2.49,2.28h0c-.07,0-.15-.01-.22-.01ZM755.31,228.19c-.09-1.38.96-2.57,2.33-2.66h0c1.38-.09,2.57.95,2.66,2.33h0c.09,1.37-.95,2.57-2.33,2.66h-.17c-1.3,0-2.4-1.01-2.49-2.33ZM832.68,230.44c-1.38-.09-2.42-1.27-2.33-2.65h0c.09-1.38,1.27-2.43,2.65-2.34h0c1.37.09,2.42,1.28,2.33,2.66h0c-.09,1.32-1.19,2.34-2.49,2.34h0c-.06,0-.11,0-.17,0ZM770.31,227.33c-.05-1.38,1.02-2.55,2.4-2.6h0c1.38-.06,2.54,1.02,2.6,2.4h0c.05,1.38-1.02,2.54-2.4,2.6h-.1c-1.34,0-2.45-1.06-2.5-2.4ZM817.75,229.68c-1.38-.05-2.46-1.21-2.41-2.59h0c.06-1.38,1.22-2.46,2.6-2.4h0c1.38.05,2.45,1.21,2.4,2.59h0c-.05,1.34-1.16,2.4-2.49,2.4h-.1ZM785.3,226.86c-.02-1.38,1.09-2.52,2.47-2.54h0c1.38-.02,2.51,1.09,2.53,2.47h0c.02,1.38-1.08,2.51-2.46,2.53h-.04c-1.36,0-2.48-1.09-2.5-2.46ZM802.8,229.31h0c-1.38-.02-2.49-1.15-2.47-2.53h0c.01-1.38,1.15-2.49,2.53-2.47h0c1.38.02,2.48,1.15,2.47,2.53h0c-.02,1.37-1.14,2.47-2.5,2.47h-.03Z" fill="#c8c8c8"/><path d="M785.67,1591.67c-1.93-.02-3.48-1.61-3.46-3.54h0c.03-1.93,1.61-3.48,3.55-3.46h0c1.93.03,3.48,1.62,3.45,3.55h0c-.02,1.92-1.59,3.45-3.5,3.45h-.04ZM806.68,1591.67c-1.94.02-3.52-1.53-3.55-3.46h0c-.02-1.93,1.52-3.52,3.46-3.54h0c1.93-.03,3.51,1.52,3.54,3.45h0c.03,1.93-1.52,3.52-3.45,3.55h0ZM764.67,1591.14h0c-1.93-.08-3.44-1.7-3.36-3.64h0c.07-1.93,1.7-3.43,3.63-3.36h0c1.93.08,3.44,1.7,3.36,3.63h0c-.07,1.89-1.62,3.37-3.5,3.37h-.13ZM824.02,1587.76c-.08-1.93,1.42-3.56,3.36-3.64h0c1.93-.07,3.56,1.43,3.63,3.36h0c.08,1.93-1.43,3.56-3.36,3.64h-.13c-1.88,0-3.43-1.48-3.5-3.36ZM743.69,1590.05c-1.93-.12-3.39-1.79-3.27-3.71h0c.13-1.93,1.79-3.4,3.72-3.27h0c1.93.12,3.39,1.79,3.27,3.72h0c-.12,1.85-1.66,3.27-3.49,3.27h0c-.08,0-.15,0-.23,0ZM844.91,1586.75c-.13-1.92,1.33-3.59,3.26-3.72h0c1.93-.12,3.6,1.34,3.73,3.27h0c.12,1.93-1.34,3.59-3.27,3.72h0c-.08,0-.15,0-.23,0h0c-1.83,0-3.37-1.42-3.49-3.28ZM722.75,1588.42c-1.93-.17-3.35-1.88-3.17-3.8h0c.17-1.93,1.88-3.34,3.8-3.17h0c1.92.18,3.34,1.88,3.17,3.8h0c-.17,1.82-1.69,3.19-3.48,3.19h0c-.11,0-.22,0-.32-.02ZM865.77,1585.21c-.18-1.93,1.24-3.63,3.16-3.81h0c1.93-.18,3.63,1.24,3.81,3.17h0c.18,1.92-1.24,3.63-3.17,3.8h0c-.11,0-.21.02-.32.02h0c-1.79,0-3.32-1.37-3.48-3.18ZM701.85,1586.24c-1.92-.23-3.29-1.97-3.07-3.88h0c.23-1.92,1.97-3.3,3.89-3.07h0c1.92.22,3.29,1.96,3.06,3.88h0c-.2,1.79-1.72,3.1-3.47,3.1h0c-.13,0-.27,0-.41-.03ZM886.58,1583.11c-.23-1.91,1.14-3.66,3.06-3.88h0c1.92-.23,3.66,1.14,3.89,3.06h0c.23,1.92-1.15,3.66-3.06,3.89h0c-.14.02-.28.02-.42.02h0c-1.75,0-3.26-1.31-3.47-3.09ZM681.02,1583.51h0c-1.91-.28-3.24-2.05-2.96-3.97h0c.27-1.91,2.05-3.24,3.96-2.96h0c1.92.28,3.24,2.05,2.97,3.97h0c-.26,1.74-1.75,3-3.47,3h0c-.16,0-.33-.02-.5-.04ZM907.33,1580.47c-.28-1.91,1.04-3.69,2.96-3.96h0c1.91-.28,3.69,1.04,3.96,2.96h0c.28,1.91-1.04,3.69-2.96,3.96h0c-.17.03-.34.04-.5.04h0c-1.72,0-3.21-1.26-3.46-3ZM660.27,1580.23c-1.91-.33-3.19-2.14-2.86-4.04h0c.33-1.91,2.14-3.19,4.04-2.86h0c1.91.33,3.19,2.14,2.86,4.04h0c-.29,1.71-1.77,2.91-3.45,2.91h0c-.19,0-.39-.02-.59-.05ZM928,1577.29c-.33-1.91.95-3.72,2.85-4.05h0c1.91-.33,3.72.95,4.05,2.86h0c.32,1.9-.95,3.71-2.86,4.04h0c-.2.03-.4.05-.6.05h0c-1.67,0-3.15-1.2-3.44-2.9ZM639.61,1576.4c-1.89-.38-3.13-2.22-2.75-4.12h0c.38-1.89,2.22-3.12,4.12-2.75h0c1.89.38,3.12,2.22,2.75,4.12h0c-.34,1.67-1.8,2.82-3.43,2.82h0c-.23,0-.46-.02-.69-.07ZM948.58,1573.55c-.38-1.9.85-3.74,2.74-4.12h0c1.9-.38,3.74.86,4.12,2.75h0c.38,1.89-.85,3.74-2.74,4.12h0c-.24.04-.47.07-.69.07h0c-1.64,0-3.1-1.15-3.43-2.82ZM619.06,1572.02c-1.88-.42-3.07-2.3-2.64-4.18h0c.43-1.89,2.31-3.07,4.19-2.64h0c1.88.43,3.07,2.3,2.64,4.18h0c-.37,1.63-1.81,2.73-3.41,2.73h0c-.26,0-.52-.03-.78-.09ZM969.05,1569.27c-.43-1.88.75-3.76,2.64-4.19h0c1.89-.43,3.77.75,4.19,2.64h0c.44,1.88-.75,3.76-2.63,4.19h0c-.26.06-.52.09-.78.09h0c-1.6,0-3.04-1.11-3.41-2.73ZM598.63,1567.1h.01c-1.88-.47-3.01-2.38-2.53-4.25h0c.48-1.88,2.38-3.01,4.25-2.53h0c1.88.48,3.01,2.38,2.53,4.26h0c-.4,1.58-1.83,2.63-3.39,2.63h0c-.28,0-.58-.03-.87-.11ZM989.4,1564.45c-.48-1.87.65-3.78,2.53-4.26h0c1.87-.48,3.78.65,4.26,2.53h0c.47,1.87-.66,3.78-2.53,4.25h0c-.29.08-.58.11-.87.11h0c-1.56,0-2.98-1.05-3.39-2.63ZM578.35,1561.64c-1.86-.53-2.94-2.46-2.42-4.32h0c.53-1.86,2.47-2.94,4.33-2.41h0c1.86.52,2.94,2.46,2.41,4.32h0c-.44,1.54-1.84,2.55-3.37,2.55h0c-.31,0-.64-.05-.95-.14ZM1009.62,1559.09c-.53-1.86.55-3.8,2.41-4.32h0c1.86-.53,3.79.55,4.32,2.4h0c.53,1.86-.55,3.8-2.41,4.33h0c-.32.09-.64.13-.95.13h0c-1.53,0-2.93-1-3.37-2.54ZM558.21,1555.64c-1.85-.58-2.87-2.54-2.3-4.38h0c.58-1.85,2.54-2.88,4.39-2.3h0c1.84.58,2.87,2.54,2.3,4.39h0c-.47,1.49-1.85,2.45-3.34,2.45h0c-.35,0-.7-.05-1.05-.16ZM1029.69,1553.19c-.58-1.84.45-3.81,2.29-4.38h0c1.84-.58,3.81.44,4.39,2.29h0c.58,1.84-.45,3.81-2.29,4.39h0c-.35.1-.7.16-1.05.16h0c-1.49,0-2.87-.96-3.34-2.46ZM538.17,1549.08c-1.83-.62-2.8-2.61-2.18-4.44h0c.63-1.83,2.62-2.81,4.45-2.18h0c1.82.63,2.8,2.62,2.18,4.45h0c-.5,1.45-1.86,2.36-3.32,2.36h0c-.37,0-.75-.06-1.13-.19ZM1049.59,1546.76c-.62-1.83.35-3.82,2.18-4.44h0c1.83-.63,3.82.35,4.45,2.18h0c.62,1.82-.35,3.81-2.18,4.44h0c-.38.13-.76.19-1.13.19h0c-1.46,0-2.82-.91-3.32-2.37ZM518.32,1542c-1.81-.68-2.73-2.69-2.06-4.5h0c.67-1.82,2.69-2.74,4.5-2.06h0c1.81.67,2.73,2.69,2.06,4.5h0c-.52,1.41-1.86,2.28-3.28,2.28h0c-.4,0-.82-.07-1.22-.22ZM1069.32,1539.81c-.68-1.81.25-3.83,2.06-4.5h0c1.81-.68,3.82.24,4.5,2.05h0c.67,1.81-.25,3.83-2.06,4.5h0c-.4.15-.81.23-1.22.23h0c-1.42,0-2.75-.87-3.28-2.28ZM498.67,1534.38h0c-1.79-.72-2.66-2.76-1.94-4.55h0c.72-1.79,2.76-2.66,4.55-1.94h0c1.8.72,2.67,2.76,1.94,4.56h0c-.54,1.36-1.86,2.19-3.24,2.19h0c-.44,0-.88-.08-1.31-.26ZM1088.85,1532.33c-.72-1.79.15-3.83,1.94-4.56h0c1.79-.72,3.83.15,4.56,1.94h0c.72,1.79-.15,3.83-1.94,4.56h0c-.43.17-.87.25-1.31.25h0c-1.38,0-2.7-.83-3.25-2.19ZM479.23,1526.25c-1.77-.77-2.58-2.83-1.81-4.6h0c.77-1.77,2.83-2.59,4.6-1.82h0c1.78.77,2.59,2.83,1.82,4.61h0c-.57,1.31-1.86,2.1-3.21,2.1h0c-.47,0-.94-.09-1.4-.29ZM1108.12,1524.36c-.77-1.77.04-3.83,1.81-4.6h0c1.78-.77,3.84.04,4.61,1.82h0c.77,1.77-.04,3.83-1.82,4.6h0c-.45.2-.92.29-1.39.29h0c-1.35,0-2.64-.79-3.21-2.11ZM460.03,1517.61c-1.75-.82-2.51-2.9-1.7-4.65h0c.82-1.75,2.9-2.51,4.66-1.69h0c1.75.81,2.51,2.89,1.69,4.65h0c-.59,1.27-1.86,2.02-3.18,2.02h0c-.49,0-.99-.11-1.47-.33ZM1127.17,1515.89c-.82-1.76-.06-3.84,1.69-4.65h0c1.75-.82,3.84-.06,4.65,1.69h0c.82,1.75.06,3.83-1.69,4.65h0c-.48.22-.98.33-1.47.33h0c-1.32,0-2.59-.75-3.18-2.02ZM1146,1506.91c-.87-1.73-.17-3.83,1.57-4.7h0c1.72-.86,3.83-.16,4.69,1.57h0c.86,1.73.16,3.84-1.57,4.7h0c-.5.25-1.04.37-1.56.37h0c-1.29,0-2.52-.72-3.13-1.94ZM441.06,1508.46c-1.73-.86-2.43-2.96-1.57-4.69h0c.87-1.73,2.97-2.44,4.7-1.57h0c1.73.86,2.43,2.96,1.57,4.69h0c-.62,1.23-1.85,1.94-3.14,1.94h0c-.52,0-1.06-.12-1.56-.37ZM1164.58,1497.43c-.91-1.7-.26-3.82,1.45-4.73h0c1.7-.91,3.82-.27,4.73,1.44h0c.91,1.71.26,3.83-1.44,4.74h0c-.53.27-1.09.41-1.64.41h0c-1.26,0-2.47-.68-3.1-1.86ZM422.35,1498.81c-1.71-.91-2.35-3.02-1.44-4.73h0c.9-1.71,3.02-2.35,4.73-1.45h0c1.71.91,2.35,3.03,1.44,4.74h0c-.63,1.18-1.84,1.85-3.09,1.85h0c-.55,0-1.12-.13-1.64-.41ZM1182.92,1487.47c-.95-1.69-.36-3.82,1.32-4.77h0c1.68-.96,3.82-.37,4.77,1.31h0c.95,1.69.36,3.82-1.32,4.77h0c-.55.31-1.14.46-1.72.46h0c-1.22,0-2.41-.64-3.05-1.77ZM403.91,1488.67c-1.69-.95-2.27-3.09-1.32-4.77h0c.95-1.68,3.09-2.27,4.77-1.31h0c1.68.95,2.27,3.08,1.32,4.77h0c-.65,1.13-1.83,1.77-3.05,1.77h0c-.59,0-1.18-.15-1.72-.46ZM1200.99,1477.02c-1-1.66-.46-3.81,1.19-4.81h0c1.66-1,3.81-.46,4.81,1.2h0c.99,1.65.46,3.8-1.2,4.8h0c-.56.34-1.18.5-1.8.5h0c-1.19,0-2.34-.6-3-1.69ZM385.74,1478.05h0c-1.66-.99-2.19-3.14-1.19-4.8h0c.99-1.66,3.15-2.19,4.8-1.19h0c1.66,1,2.19,3.15,1.19,4.8h0c-.65,1.09-1.81,1.7-3,1.7h0c-.61,0-1.24-.16-1.8-.51ZM1218.78,1466.09c-1.04-1.63-.56-3.79,1.07-4.83h0c1.63-1.04,3.79-.56,4.83,1.07h0c1.04,1.62.56,3.79-1.07,4.83h0c-.59.37-1.24.55-1.88.55h0c-1.16,0-2.29-.57-2.96-1.62ZM367.86,1466.96c-1.62-1.04-2.1-3.21-1.06-4.83h0c1.04-1.63,3.2-2.11,4.83-1.07h0c1.63,1.04,2.11,3.21,1.07,4.84h0c-.67,1.04-1.8,1.61-2.96,1.61h0c-.64,0-1.29-.18-1.88-.55ZM1236.28,1454.7c-1.08-1.6-.66-3.78.94-4.86h0c1.6-1.08,3.78-.66,4.86.94h0c1.08,1.6.67,3.78-.94,4.86h0c-.6.4-1.28.6-1.95.6h0c-1.13,0-2.23-.54-2.91-1.54ZM350.29,1455.4c-1.6-1.08-2.02-3.26-.94-4.86h0c1.09-1.6,3.26-2.02,4.86-.94h0c1.61,1.09,2.02,3.26.94,4.86h0c-.68,1-1.78,1.54-2.9,1.54h0c-.68,0-1.36-.19-1.96-.6ZM1253.49,1442.85c-1.13-1.57-.77-3.76.81-4.89h0c1.57-1.12,3.75-.76,4.88.82h0c1.12,1.57.76,3.75-.81,4.88h0c-.62.44-1.33.65-2.03.65h0c-1.1,0-2.17-.51-2.85-1.46ZM333.03,1443.38c-1.57-1.12-1.93-3.31-.81-4.88h0c1.13-1.57,3.31-1.93,4.89-.81h0c1.57,1.13,1.93,3.31.8,4.88h0c-.68.96-1.75,1.47-2.84,1.47h0c-.71,0-1.42-.22-2.04-.66ZM1270.37,1430.55c-1.17-1.55-.86-3.74.69-4.91h0c1.54-1.16,3.73-.85,4.9.69h0c1.16,1.54.86,3.73-.69,4.9h0c-.64.48-1.38.71-2.11.71h0c-1.06,0-2.11-.48-2.8-1.39ZM316.1,1430.92c-1.54-1.17-1.85-3.37-.68-4.91h0c1.16-1.54,3.36-1.84,4.9-.68h0c1.54,1.17,1.85,3.37.68,4.91h0c-.69.91-1.73,1.39-2.79,1.39h0c-.74,0-1.48-.24-2.11-.71ZM1286.93,1417.8c-1.2-1.51-.95-3.71.56-4.91h0c1.51-1.21,3.71-.96,4.92.55h0c1.2,1.51.95,3.71-.56,4.92h0c-.64.51-1.41.76-2.18.76h0c-1.03,0-2.04-.45-2.74-1.32ZM299.5,1418.01c-1.51-1.21-1.75-3.41-.55-4.92h0c1.21-1.51,3.41-1.76,4.92-.55h0c1.51,1.21,1.76,3.41.55,4.92h0c-.69.87-1.71,1.32-2.74,1.32h0c-.76,0-1.53-.25-2.18-.77ZM1303.16,1404.63c-1.25-1.48-1.06-3.69.42-4.93h0c1.48-1.25,3.69-1.06,4.93.42h0c1.25,1.48,1.06,3.68-.42,4.93h0c-.66.55-1.46.82-2.25.82h0c-1,0-1.99-.42-2.68-1.24ZM283.25,1404.68c-1.48-1.25-1.66-3.46-.42-4.93h0c1.25-1.48,3.46-1.67,4.93-.43h0c1.48,1.25,1.67,3.46.42,4.94h0c-.69.82-1.68,1.24-2.67,1.24h0c-.8,0-1.6-.27-2.26-.82ZM1319.03,1391.03c-1.28-1.45-1.15-3.66.3-4.94h0c1.44-1.29,3.66-1.16,4.94.29h0c1.28,1.45,1.15,3.66-.3,4.94h0c-.66.59-1.49.89-2.32.89h0c-.96,0-1.93-.4-2.62-1.18ZM267.36,1390.92c-1.44-1.28-1.57-3.49-.29-4.94h0c1.28-1.44,3.5-1.57,4.94-.29h0c1.45,1.29,1.58,3.5.29,4.94h0c-.69.78-1.65,1.18-2.61,1.18h0c-.83,0-1.66-.3-2.33-.89ZM1334.55,1377.01c-1.32-1.41-1.25-3.63.16-4.94h0c1.42-1.32,3.63-1.25,4.95.16h0c1.32,1.41,1.25,3.63-.16,4.95h0c-.68.63-1.54.94-2.39.94h0c-.94,0-1.87-.37-2.56-1.11ZM251.84,1376.76c-1.41-1.32-1.48-3.54-.16-4.95h0c1.32-1.41,3.54-1.48,4.95-.16h0c1.41,1.32,1.48,3.54.16,4.95h0c-.69.73-1.62,1.1-2.56,1.1h0c-.85,0-1.71-.31-2.39-.94ZM1349.7,1362.59c-1.36-1.37-1.35-3.59.03-4.95h0c1.38-1.35,3.59-1.34,4.95.04h0c1.36,1.38,1.34,3.59-.03,4.95h0c-.69.67-1.57,1.01-2.46,1.01h0c-.91,0-1.81-.35-2.49-1.05ZM236.7,1362.19h0c-1.37-1.35-1.39-3.57-.03-4.94h0c1.36-1.38,3.57-1.39,4.95-.04h0c1.37,1.36,1.39,3.58.03,4.95h0c-.69.7-1.59,1.04-2.49,1.04h0c-.89,0-1.78-.33-2.46-1.01ZM1364.46,1347.78c-1.39-1.34-1.43-3.56-.09-4.95h0c1.33-1.39,3.55-1.43,4.95-.09h0c1.39,1.34,1.43,3.55.09,4.95h0c-.69.71-1.61,1.07-2.52,1.07h0c-.88,0-1.75-.33-2.43-.98ZM221.95,1347.24c-1.34-1.39-1.3-3.61.1-4.95h0c1.39-1.34,3.61-1.29,4.94.1h0c1.34,1.39,1.3,3.61-.09,4.95h0c-.68.65-1.55.98-2.43.98h0c-.92,0-1.83-.36-2.52-1.08ZM1378.84,1332.58c-1.43-1.3-1.53-3.51-.23-4.94h0c1.3-1.43,3.52-1.53,4.95-.23h0c1.42,1.31,1.52,3.52.22,4.95h0c-.69.76-1.64,1.14-2.59,1.14h0c-.84,0-1.68-.3-2.35-.92ZM207.6,1331.91c-1.3-1.43-1.2-3.65.23-4.95h0c1.42-1.3,3.64-1.2,4.94.23h0c1.3,1.43,1.2,3.64-.23,4.95h0c-.67.61-1.52.91-2.36.91h0c-.95,0-1.89-.38-2.58-1.14ZM1392.81,1317.01c-1.46-1.27-1.62-3.48-.36-4.94h0c1.27-1.46,3.48-1.62,4.94-.35h0c1.46,1.26,1.62,3.47.35,4.94h0c-.69.8-1.66,1.2-2.64,1.2h0c-.82,0-1.63-.28-2.29-.85ZM193.66,1316.21c-1.27-1.46-1.11-3.67.35-4.94h0c1.47-1.26,3.67-1.1,4.94.36h0c1.26,1.46,1.1,3.67-.36,4.94h0c-.66.57-1.48.85-2.29.85h0c-.98,0-1.95-.41-2.64-1.21ZM1406.37,1301.07c-1.49-1.22-1.71-3.43-.49-4.92h0c1.23-1.5,3.44-1.72,4.93-.49h0c1.49,1.23,1.71,3.43.48,4.93h0c-.69.84-1.69,1.28-2.7,1.28h0c-.78,0-1.57-.26-2.22-.8ZM180.13,1300.15h0c-1.22-1.5-1.01-3.7.49-4.93h0c1.49-1.22,3.7-1,4.92.49h0c1.23,1.5,1.01,3.7-.48,4.93h0c-.65.53-1.44.79-2.22.79h0c-1.01,0-2.02-.44-2.71-1.28ZM1419.51,1284.78c-1.53-1.18-1.8-3.38-.61-4.91h0c1.18-1.53,3.38-1.8,4.91-.61h0c1.52,1.18,1.8,3.38.61,4.91h0c-.69.89-1.72,1.35-2.76,1.35h0c-.75,0-1.51-.24-2.15-.74ZM167.04,1283.75c-1.19-1.53-.91-3.73.61-4.92h0c1.53-1.18,3.73-.91,4.91.62h0c1.19,1.53.91,3.72-.61,4.91h0c-.64.5-1.4.74-2.15.74h0c-1.04,0-2.07-.47-2.76-1.35ZM1432.22,1268.15c-1.56-1.15-1.89-3.34-.74-4.89h0c1.14-1.56,3.33-1.9,4.89-.75h0c1.56,1.15,1.89,3.34.74,4.9h0c-.68.93-1.74,1.42-2.82,1.42h0c-.72,0-1.45-.22-2.07-.68ZM154.38,1267.01c-1.15-1.56-.81-3.75.74-4.9h0c1.56-1.14,3.75-.81,4.9.75h0c1.14,1.55.81,3.74-.75,4.89h0c-.62.46-1.35.68-2.07.68h0c-1.08,0-2.14-.49-2.82-1.42ZM1444.49,1251.18c-1.59-1.1-1.98-3.28-.87-4.87h0c1.1-1.59,3.28-1.98,4.87-.87h0c1.59,1.1,1.98,3.29.87,4.87h0c-.68.98-1.77,1.5-2.87,1.5h0c-.7,0-1.39-.2-2-.63ZM142.17,1249.94c-1.11-1.58-.72-3.77.87-4.87h0c1.59-1.11,3.77-.71,4.87.87h0c1.11,1.59.72,3.77-.87,4.88h0c-.61.42-1.31.62-2,.62h0c-1.1,0-2.19-.52-2.87-1.5ZM1456.31,1233.9c-1.62-1.06-2.07-3.23-1-4.85h0c1.06-1.61,3.23-2.06,4.85-1h0c1.61,1.06,2.06,3.23,1,4.85h0c-.68,1.02-1.79,1.58-2.93,1.58h0c-.66,0-1.33-.19-1.92-.58ZM130.41,1232.57c-1.06-1.62-.61-3.79,1-4.85h0c1.62-1.06,3.79-.61,4.85,1h0c1.06,1.62.61,3.79-1,4.85h0c-.59.39-1.26.57-1.92.57h0c-1.14,0-2.26-.55-2.93-1.57ZM1467.67,1216.3c-1.64-1.02-2.15-3.17-1.13-4.82h0c1.02-1.64,3.18-2.14,4.82-1.12h0c1.64,1.02,2.15,3.18,1.13,4.82h0c-.66,1.07-1.81,1.65-2.98,1.65h0c-.63,0-1.27-.17-1.84-.53ZM119.12,1214.89c-1.02-1.64-.51-3.8,1.13-4.82h0c1.64-1.02,3.8-.51,4.82,1.13h0c1.02,1.64.51,3.8-1.13,4.82h0c-.57.36-1.21.53-1.84.53h0c-1.17,0-2.32-.59-2.98-1.66ZM1478.57,1198.41c-1.67-.97-2.23-3.12-1.26-4.79h0c.98-1.67,3.12-2.23,4.79-1.25h0c1.67.97,2.23,3.12,1.25,4.79h0c-.66,1.11-1.83,1.73-3.03,1.73h0c-.6,0-1.21-.15-1.76-.48ZM108.3,1196.93c-.98-1.67-.41-3.81,1.25-4.79h0c1.67-.97,3.82-.41,4.79,1.26h0c.98,1.67.42,3.81-1.25,4.79h0c-.56.32-1.17.48-1.77.48h0c-1.2,0-2.37-.63-3.02-1.74ZM1488.99,1180.23c-1.7-.93-2.31-3.06-1.38-4.75h0c.93-1.69,3.06-2.31,4.75-1.38h0c1.69.93,2.31,3.06,1.38,4.75h0c-.64,1.16-1.83,1.82-3.07,1.82h0c-.57,0-1.15-.14-1.68-.44ZM97.96,1178.69c-.93-1.69-.31-3.81,1.38-4.75h0c1.7-.93,3.82-.31,4.75,1.38h.01c.93,1.7.31,3.83-1.39,4.76h0c-.53.29-1.11.43-1.68.43h0c-1.23,0-2.43-.66-3.07-1.82ZM1498.92,1161.78c-1.71-.89-2.39-3-1.5-4.71h0c.88-1.72,2.99-2.4,4.71-1.51h0c1.72.89,2.39,3,1.51,4.72h0c-.62,1.2-1.85,1.89-3.11,1.89h0c-.54,0-1.09-.12-1.61-.39ZM88.11,1160.2c-.89-1.72-.21-3.83,1.5-4.72h0c1.72-.88,3.83-.21,4.72,1.51h0c.89,1.72.21,3.83-1.51,4.71h0c-.51.27-1.06.39-1.6.39h0c-1.27,0-2.49-.69-3.11-1.89ZM78.75,1141.45c-.84-1.74-.11-3.83,1.63-4.67h0c1.74-.84,3.83-.11,4.67,1.63h0c.84,1.74.11,3.83-1.63,4.67h0c-.49.24-1.01.35-1.52.35h0c-1.3,0-2.55-.73-3.15-1.98ZM1508.37,1143.07c-1.74-.84-2.47-2.93-1.63-4.67h0c.84-1.75,2.93-2.48,4.67-1.63h0c1.74.84,2.47,2.93,1.63,4.67h.01c-.61,1.25-1.86,1.98-3.16,1.98h0c-.51,0-1.03-.11-1.52-.35ZM69.89,1122.47h0c-.79-1.76-.01-3.84,1.75-4.63h0c1.77-.8,3.84,0,4.63,1.75h0c.8,1.77.01,3.84-1.75,4.63h0c-.47.21-.95.31-1.44.31h0c-1.33,0-2.61-.77-3.19-2.06ZM1517.32,1124.11c-1.76-.8-2.55-2.87-1.76-4.63h0c.8-1.76,2.87-2.55,4.63-1.75h0c1.76.79,2.55,2.86,1.76,4.62h0c-.59,1.3-1.86,2.07-3.2,2.07h0c-.48,0-.97-.1-1.43-.31ZM61.54,1103.26c-.75-1.78.09-3.83,1.88-4.58h0c1.78-.75,3.83.09,4.58,1.88h0c.74,1.78-.09,3.83-1.88,4.58h0c-.44.18-.9.27-1.35.27h0c-1.37,0-2.67-.81-3.23-2.15ZM1525.76,1104.91c-1.78-.75-2.62-2.8-1.88-4.58h0c.75-1.78,2.8-2.62,4.58-1.88h0c1.79.75,2.63,2.8,1.88,4.58h0c-.56,1.34-1.86,2.15-3.23,2.15h0c-.45,0-.91-.09-1.35-.27ZM53.71,1083.85c-.7-1.8.19-3.83,1.99-4.53h0c1.8-.7,3.83.19,4.53,2h0c.7,1.8-.19,3.83-2,4.52h0c-.41.17-.84.24-1.26.24h0c-1.4,0-2.73-.84-3.26-2.23ZM1533.69,1085.49c-1.8-.7-2.7-2.73-2-4.53h0c.7-1.8,2.73-2.7,4.53-2h0c1.8.7,2.7,2.73,2,4.53h0c-.54,1.39-1.86,2.24-3.27,2.24h0c-.42,0-.84-.08-1.26-.24ZM46.36,1064.17h0c-.65-1.83.3-3.83,2.12-4.48h0c1.82-.65,3.82.3,4.47,2.12h0c.65,1.82-.29,3.82-2.11,4.47h0c-.39.14-.79.21-1.18.21h0c-1.44,0-2.79-.89-3.3-2.32ZM1541.1,1065.86c-1.82-.65-2.77-2.65-2.11-4.48h0c.65-1.82,2.65-2.76,4.47-2.11h0c1.82.65,2.77,2.65,2.12,4.47h0c-.52,1.43-1.86,2.32-3.3,2.32h0c-.39,0-.79-.06-1.18-.2ZM39.54,1044.29h0c-.6-1.83.4-3.81,2.24-4.41h0c1.83-.61,3.81.39,4.41,2.23h0c.61,1.84-.39,3.81-2.23,4.42h0c-.36.12-.73.17-1.09.17h0c-1.47,0-2.84-.93-3.33-2.41ZM1547.99,1046.03c-1.84-.6-2.84-2.57-2.24-4.41h0c.61-1.84,2.58-2.84,4.42-2.24h0c1.83.6,2.84,2.58,2.24,4.42h0c-.49,1.47-1.86,2.41-3.33,2.41h0c-.36,0-.73-.06-1.09-.18ZM33.26,1024.25c-.56-1.86.49-3.81,2.35-4.36h0c1.85-.55,3.8.5,4.35,2.35h0c.56,1.85-.49,3.8-2.35,4.36h0c-.33.1-.67.15-1,.14h0c-1.51,0-2.9-.98-3.35-2.49ZM1554.33,1026.1c-1.86-.55-2.91-2.5-2.36-4.36h0c.56-1.85,2.5-2.9,4.36-2.35h0c1.85.55,2.9,2.5,2.35,4.35h0c-.45,1.52-1.84,2.51-3.35,2.51h0c-.33,0-.67-.05-1-.15ZM27.5,1004.04c-.5-1.87.6-3.79,2.47-4.29h0c1.87-.51,3.79.6,4.29,2.46h0c.51,1.87-.6,3.79-2.46,4.3h0c-.31.08-.62.12-.92.12h0c-1.54,0-2.95-1.03-3.38-2.59ZM1560.13,1006c-1.87-.5-2.97-2.42-2.47-4.29h0c.5-1.87,2.42-2.97,4.29-2.47h0c1.87.5,2.97,2.43,2.47,4.29h0c-.42,1.56-1.84,2.59-3.38,2.59h0c-.3,0-.61-.04-.91-.12ZM22.29,983.69h0c-.45-1.88.7-3.77,2.58-4.23h0c1.88-.45,3.77.7,4.23,2.58h0c.45,1.88-.7,3.77-2.58,4.22h0c-.28.07-.56.1-.83.1h0c-1.58,0-3.01-1.07-3.4-2.67ZM1565.4,985.76c-1.88-.46-3.04-2.35-2.59-4.23h0c.46-1.87,2.35-3.03,4.22-2.58h0c1.88.45,3.04,2.34,2.59,4.22h0c-.39,1.61-1.82,2.68-3.4,2.68h0c-.27,0-.55-.03-.82-.09ZM17.63,963.2c-.41-1.89.79-3.75,2.69-4.15h0c1.88-.41,3.74.8,4.15,2.69h0c.4,1.89-.8,3.75-2.69,4.15h0c-.25.06-.49.08-.74.08h0c-1.61,0-3.07-1.12-3.41-2.77ZM1570.12,965.38c-1.89-.4-3.1-2.26-2.69-4.15h0c.4-1.9,2.26-3.1,4.15-2.7h0c1.89.41,3.1,2.27,2.69,4.16h0c-.35,1.64-1.8,2.77-3.42,2.77h0c-.24,0-.48-.03-.73-.08ZM13.5,942.6c-.35-1.9.9-3.73,2.8-4.08h0c1.9-.35,3.73.9,4.08,2.8h0c.36,1.9-.9,3.73-2.8,4.08h0c-.21.04-.43.06-.64.06h0c-1.65,0-3.12-1.17-3.44-2.86ZM1574.3,944.89c-1.9-.36-3.15-2.18-2.8-4.08h0c.35-1.91,2.18-3.16,4.08-2.81h0c1.9.35,3.16,2.18,2.8,4.08h0c-.31,1.69-1.78,2.87-3.43,2.87h0c-.22,0-.43-.02-.65-.06ZM9.93,921.9h0c-.31-1.91.99-3.7,2.9-4.01h0c1.91-.3,3.7,1,4.01,2.91h0c.3,1.91-1,3.71-2.91,4.01h0c-.18.03-.37.04-.55.04h0c-1.69,0-3.18-1.23-3.45-2.95ZM1577.94,924.29c-1.91-.31-3.21-2.1-2.91-4.01h0c.3-1.91,2.09-3.21,4-2.91h0c1.92.3,3.22,2.1,2.92,4.01h0c-.28,1.72-1.77,2.95-3.46,2.95h0c-.18,0-.37,0-.55-.04ZM6.9,901.11h0c-.26-1.91,1.09-3.67,3.01-3.92h0c1.91-.26,3.67,1.09,3.93,3.01h0c.25,1.91-1.1,3.67-3.02,3.93h0c-.15.02-.3.03-.45.03h0c-1.74,0-3.24-1.29-3.47-3.05ZM1581.03,903.6c-1.91-.25-3.26-2.01-3.01-3.93h0c.25-1.92,2.01-3.26,3.93-3.01h0c1.91.25,3.26,2.01,3.01,3.93h0c-.23,1.76-1.74,3.04-3.47,3.04h0c-.15,0-.3,0-.46-.03ZM4.42,880.25c-.2-1.92,1.19-3.64,3.11-3.84h0c1.93-.21,3.65,1.19,3.85,3.11h0c.2,1.92-1.19,3.65-3.11,3.85h0c-.13,0-.25.02-.37.02h0c-1.77,0-3.29-1.34-3.48-3.14ZM1583.58,882.84c-1.93-.2-3.32-1.93-3.12-3.85h0c.2-1.92,1.92-3.32,3.85-3.11h0c1.92.2,3.31,1.92,3.11,3.84h0c-.19,1.8-1.71,3.14-3.48,3.14h0c-.12,0-.24,0-.36-.02ZM2.49,859.33c-.15-1.92,1.29-3.61,3.21-3.76h0c1.93-.15,3.62,1.29,3.77,3.21h0c.15,1.93-1.29,3.62-3.21,3.77h0c-.1,0-.19,0-.28,0h0c-1.81,0-3.34-1.39-3.49-3.23ZM1585.57,862.02c-1.92-.15-3.36-1.84-3.21-3.76h0c.15-1.93,1.83-3.37,3.76-3.22h0c1.93.15,3.37,1.83,3.22,3.76h0c-.15,1.84-1.68,3.23-3.49,3.23h0c-.09,0-.19,0-.28,0ZM1.11,838.37c-.1-1.93,1.38-3.58,3.32-3.68h0c1.92-.1,3.57,1.38,3.67,3.31h0c.11,1.93-1.38,3.58-3.31,3.68h0c-.06,0-.12,0-.18,0h0c-1.85,0-3.4-1.45-3.5-3.32ZM1587.02,841.15c-1.93-.1-3.41-1.75-3.31-3.67h0c.1-1.94,1.75-3.42,3.68-3.32h0c1.93.1,3.41,1.75,3.31,3.68h0c-.1,1.87-1.64,3.32-3.49,3.32h0c-.06,0-.13,0-.19,0ZM.28,817.38c-.05-1.93,1.48-3.54,3.41-3.59h0c1.93-.05,3.54,1.47,3.59,3.4h0c.05,1.94-1.47,3.54-3.41,3.6h-.09c-1.89,0-3.45-1.51-3.5-3.41ZM1587.93,820.25c-1.93-.05-3.46-1.65-3.41-3.58h0c.05-1.94,1.66-3.46,3.59-3.41h0c1.93.05,3.46,1.66,3.41,3.59h0c-.05,1.9-1.61,3.4-3.5,3.4h-.09ZM0,796.37c0-1.93,1.56-3.5,3.49-3.5h0c1.94,0,3.51,1.56,3.51,3.5h0c0,1.93-1.57,3.5-3.5,3.5h0c-1.93,0-3.5-1.57-3.5-3.5ZM1584.79,795.84c0-.17.01-.35.04-.51h0c-.03-.18-.04-.35-.04-.54h0c0-1.93,1.56-3.5,3.49-3.5h0c1.94,0,3.51,1.56,3.51,3.5h0c0,.18,0,.35-.04.53h0c.03.17.04.34.04.52h0c0,1.94-1.57,3.5-3.5,3.5h0c-1.93,0-3.5-1.56-3.5-3.5ZM3.67,778.95c-1.94-.04-3.46-1.65-3.41-3.58H.26c.04-1.94,1.65-3.46,3.58-3.41h0c1.94.04,3.46,1.65,3.41,3.58h0c-.04,1.9-1.6,3.42-3.49,3.42h0s-.06,0-.09,0ZM1584.49,773.97h0c-.05-1.93,1.47-3.54,3.41-3.59h0c1.93-.06,3.54,1.47,3.59,3.4h0c.05,1.93-1.47,3.54-3.4,3.59h0s-.07,0-.1,0h0c-1.89,0-3.45-1.51-3.5-3.41ZM4.37,758.05c-1.93-.1-3.41-1.75-3.31-3.67h0c.1-1.94,1.74-3.42,3.67-3.32h0c1.93.1,3.42,1.74,3.32,3.67h0c-.1,1.87-1.64,3.32-3.49,3.32h-.19ZM1583.65,753.16c-.1-1.93,1.38-3.58,3.31-3.68h0c1.93-.1,3.58,1.38,3.69,3.31h0c.1,1.93-1.39,3.58-3.31,3.68h0c-.07,0-.13,0-.19,0h0c-1.85,0-3.4-1.45-3.5-3.32ZM5.63,737.17c-1.93-.15-3.37-1.83-3.22-3.76h0c.15-1.93,1.83-3.37,3.76-3.22h0c1.93.15,3.37,1.83,3.22,3.76h0c-.14,1.84-1.68,3.23-3.49,3.23h0c-.09,0-.18,0-.27-.01ZM1582.28,732.38c-.16-1.92,1.28-3.61,3.21-3.76h0c1.92-.16,3.61,1.28,3.76,3.21h0c.16,1.92-1.28,3.61-3.21,3.76h0c-.09.01-.18.02-.28.02h0c-1.81,0-3.34-1.39-3.48-3.23ZM7.43,716.33c-1.93-.2-3.32-1.92-3.12-3.84h0c.2-1.92,1.92-3.32,3.84-3.12h0c1.92.2,3.32,1.92,3.12,3.84h0c-.19,1.8-1.71,3.14-3.47,3.14h0c-.13,0-.25-.01-.37-.02ZM1580.35,711.65c-.2-1.92,1.19-3.65,3.11-3.85h0c1.92-.21,3.65,1.19,3.85,3.11h0c.2,1.92-1.19,3.65-3.11,3.85h0c-.13,0-.25.02-.37.02h0c-1.77,0-3.29-1.34-3.48-3.13ZM9.78,695.55c-1.92-.25-3.27-2.01-3.02-3.93h0c.25-1.91,2.01-3.26,3.92-3.01h0c1.92.25,3.27,2,3.02,3.92h0c-.23,1.76-1.73,3.05-3.47,3.05h0c-.15,0-.3,0-.45-.03ZM1577.88,690.97h0c-.25-1.91,1.09-3.67,3.01-3.93h0c1.91-.25,3.68,1.09,3.93,3.01h0c.25,1.92-1.09,3.68-3.01,3.93h0c-.15.02-.31.03-.46.03h0c-1.73,0-3.23-1.28-3.47-3.04ZM12.67,674.83c-1.91-.3-3.21-2.09-2.91-4h0c.3-1.91,2.09-3.21,4-2.91h0c1.91.3,3.21,2.09,2.91,4h0c-.27,1.73-1.76,2.96-3.45,2.96h0c-.18,0-.36-.02-.55-.05ZM1574.87,670.37c-.31-1.91.99-3.71,2.9-4.01h0c1.91-.31,3.7.99,4.01,2.9h0c.3,1.91-1,3.71-2.91,4.01h0c-.18.03-.37.05-.55.05h0c-1.69,0-3.18-1.23-3.45-2.95ZM16.11,654.2c-1.9-.35-3.15-2.18-2.8-4.08h0c.35-1.9,2.17-3.16,4.08-2.8h0c1.9.35,3.15,2.17,2.8,4.08h0c-.31,1.68-1.78,2.86-3.44,2.86h0c-.21,0-.42-.02-.64-.06ZM1571.31,649.85c-.36-1.9.89-3.73,2.8-4.08h0c1.89-.36,3.72.89,4.08,2.79h0c.35,1.9-.9,3.73-2.8,4.09h0c-.21.04-.43.06-.64.06h0c-1.66,0-3.13-1.18-3.44-2.86ZM20.1,633.67c-1.89-.41-3.1-2.26-2.7-4.16h0c.4-1.89,2.26-3.09,4.16-2.69h0c1.88.4,3.09,2.26,2.69,4.15h0c-.35,1.65-1.8,2.78-3.42,2.78h0c-.24,0-.49-.03-.73-.08ZM1567.21,629.44c-.41-1.9.8-3.75,2.68-4.16h0c1.9-.41,3.76.8,4.16,2.69h0c.41,1.89-.8,3.75-2.68,4.15h0c-.25.06-.5.08-.74.08h0c-1.62,0-3.07-1.12-3.42-2.76ZM24.63,613.25c-1.88-.46-3.04-2.35-2.58-4.23h0c.45-1.88,2.34-3.03,4.22-2.58h0c1.88.45,3.03,2.34,2.58,4.22h0c-.38,1.61-1.82,2.68-3.4,2.68h0c-.27,0-.55-.03-.82-.09ZM1562.57,609.14c-.46-1.88.69-3.77,2.57-4.23h0c1.88-.46,3.77.7,4.23,2.58h0c.45,1.88-.7,3.77-2.58,4.22h0c-.27.07-.55.1-.83.1h0c-1.57,0-3.01-1.07-3.39-2.67ZM29.7,592.95c-1.86-.5-2.97-2.42-2.47-4.29h0c.5-1.86,2.42-2.97,4.29-2.47h0c1.87.5,2.97,2.43,2.47,4.29h0c-.42,1.56-1.83,2.59-3.38,2.59h0c-.3,0-.6-.04-.91-.12ZM1557.39,588.97c-.51-1.87.59-3.79,2.46-4.29h0c1.87-.51,3.79.59,4.29,2.46h0c.51,1.86-.59,3.79-2.46,4.29h0c-.31.09-.61.12-.92.12h0c-1.54,0-2.95-1.02-3.37-2.58ZM35.31,572.8c-1.85-.55-2.91-2.5-2.35-4.35h0c.55-1.86,2.49-2.91,4.35-2.36h0c1.85.55,2.91,2.5,2.35,4.35h0c-.45,1.52-1.84,2.51-3.35,2.51h0c-.33,0-.66-.05-1-.15ZM1551.67,568.95c-.55-1.86.5-3.81,2.35-4.36h0c1.85-.56,3.8.49,4.36,2.35h0c.55,1.85-.5,3.8-2.35,4.35h0c-.33.1-.67.15-1,.15h0c-1.51,0-2.9-.98-3.36-2.49ZM41.46,552.81c-1.84-.6-2.84-2.58-2.24-4.42h0c.6-1.83,2.57-2.84,4.41-2.24h0c1.84.6,2.84,2.58,2.24,4.42h0c-.48,1.47-1.85,2.41-3.33,2.41h0c-.36,0-.72-.06-1.08-.17ZM1545.43,549.08h0c-.6-1.84.39-3.81,2.23-4.42h0c1.83-.6,3.81.4,4.42,2.23h0c.6,1.84-.4,3.82-2.23,4.42h0c-.36.12-.73.18-1.1.18h0c-1.47,0-2.84-.94-3.32-2.41ZM48.15,532.91c-1.82-.64-2.77-2.65-2.12-4.47h0c.65-1.82,2.65-2.77,4.48-2.12h0c1.81.65,2.77,2.65,2.12,4.47h0c-.51,1.44-1.85,2.33-3.29,2.33h0c-.39,0-.79-.07-1.18-.21ZM1538.66,529.39h0c-.65-1.82.29-3.82,2.11-4.48h0c1.82-.65,3.83.3,4.48,2.11h0c.65,1.83-.3,3.83-2.11,4.48h0c-.4.14-.79.21-1.19.21h0c-1.43,0-2.78-.89-3.29-2.32ZM55.38,513.22c-1.81-.7-2.7-2.73-2-4.53h0c.69-1.81,2.72-2.7,4.52-2h0c1.81.69,2.7,2.72,2.01,4.52h0c-.54,1.39-1.87,2.24-3.27,2.24h0c-.42,0-.85-.07-1.26-.23ZM1531.37,509.88c-.7-1.8.19-3.83,1.99-4.53h0c1.8-.7,3.83.19,4.53,2h0c.7,1.8-.19,3.83-1.99,4.53h0c-.42.16-.85.24-1.27.24h0c-1.4,0-2.72-.85-3.26-2.24ZM63.12,493.72c-1.78-.75-2.63-2.8-1.88-4.58h0c.75-1.78,2.8-2.63,4.58-1.88h0c1.78.75,2.63,2.8,1.88,4.58h0c-.56,1.34-1.86,2.15-3.23,2.15h0c-.45,0-.91-.09-1.35-.27ZM1523.59,490.65c-.75-1.78.09-3.84,1.87-4.58h0c1.78-.75,3.83.09,4.58,1.87h0c.75,1.78-.09,3.83-1.87,4.58h0c-.44.19-.9.27-1.35.27h0c-1.37,0-2.67-.8-3.23-2.14ZM71.38,474.44c-1.76-.79-2.55-2.86-1.76-4.63h0c.8-1.76,2.87-2.55,4.63-1.75h0c1.76.79,2.55,2.86,1.76,4.62h0c-.59,1.3-1.86,2.07-3.2,2.07h0c-.48,0-.97-.1-1.43-.31ZM1515.3,471.62c-.8-1.76-.01-3.84,1.75-4.63h0c1.76-.8,3.83,0,4.63,1.75h0c.79,1.76,0,3.83-1.75,4.63h0c-.47.21-.96.31-1.44.31h0c-1.33,0-2.61-.77-3.19-2.06ZM80.15,455.4c-1.74-.84-2.48-2.93-1.64-4.68h0c.84-1.74,2.94-2.47,4.67-1.63h0c1.75.84,2.48,2.93,1.64,4.67h0c-.61,1.25-1.85,1.98-3.16,1.98h0c-.51,0-1.02-.11-1.51-.34ZM1506.51,452.81c-.84-1.74-.11-3.83,1.62-4.68h0c1.74-.84,3.84-.11,4.68,1.63h0c.84,1.74.11,3.84-1.63,4.68h0c-.49.23-1.01.35-1.52.35h0c-1.3,0-2.55-.73-3.15-1.98ZM89.41,436.59c-1.71-.88-2.39-2.99-1.5-4.71h0c.88-1.72,2.99-2.39,4.71-1.51h0c1.72.88,2.39,3,1.51,4.71h0c-.62,1.21-1.85,1.9-3.12,1.9h0c-.54,0-1.08-.12-1.6-.39ZM1497.22,434.23c-.89-1.71-.22-3.82,1.5-4.71h0c1.72-.89,3.83-.22,4.72,1.5h0c.88,1.72.21,3.83-1.5,4.72h0c-.52.26-1.07.39-1.61.39h0c-1.27,0-2.49-.69-3.11-1.9ZM99.18,418.05c-1.7-.93-2.32-3.06-1.39-4.75h0c.93-1.7,3.06-2.32,4.75-1.39h0c1.7.93,2.32,3.06,1.39,4.76h0c-.64,1.15-1.84,1.81-3.07,1.81h0c-.57,0-1.15-.14-1.68-.43ZM1487.44,415.91h0c-.93-1.7-.32-3.83,1.38-4.76h0c1.69-.93,3.82-.31,4.75,1.38h0c.93,1.69.32,3.82-1.38,4.75h0c-.53.3-1.11.44-1.68.44h0c-1.23,0-2.43-.66-3.07-1.81ZM109.42,399.77c-1.67-.97-2.23-3.12-1.25-4.78h0c.97-1.68,3.11-2.24,4.78-1.26h0c1.67.97,2.24,3.11,1.26,4.79h0c-.65,1.11-1.82,1.73-3.03,1.73h0c-.59,0-1.2-.15-1.76-.48ZM1477.18,397.84c-.98-1.67-.42-3.82,1.25-4.79h0c1.67-.98,3.81-.42,4.79,1.25h0c.98,1.67.42,3.81-1.25,4.79h0c-.56.32-1.17.48-1.77.48h0c-1.2,0-2.37-.62-3.02-1.73ZM120.15,381.78c-1.65-1.02-2.15-3.18-1.13-4.82h0c1.02-1.65,3.17-2.15,4.82-1.13h0c1.64,1.02,2.15,3.17,1.13,4.82h0c-.67,1.07-1.81,1.65-2.98,1.65h0c-.63,0-1.27-.17-1.84-.52ZM1466.44,380.04h0c-1.02-1.64-.51-3.8,1.13-4.82h0c1.64-1.02,3.8-.52,4.82,1.13h0c1.02,1.64.51,3.8-1.13,4.81h0c-.57.36-1.21.53-1.84.53h0c-1.17,0-2.31-.58-2.98-1.65ZM131.34,364.08c-1.61-1.07-2.06-3.24-1-4.85h0c1.06-1.62,3.23-2.06,4.85-1h0c1.61,1.06,2.06,3.23,1,4.84h0c-.67,1.03-1.79,1.58-2.93,1.58h0c-.66,0-1.33-.19-1.92-.57ZM1455.24,362.53c-1.07-1.62-.62-3.79,1-4.85h0c1.61-1.07,3.78-.62,4.85,1h-.01c1.07,1.61.62,3.78-.99,4.85h0c-.6.39-1.26.57-1.93.57h0c-1.13,0-2.25-.55-2.92-1.57ZM143,346.68c-1.59-1.11-1.98-3.29-.88-4.87h0c1.11-1.59,3.29-1.98,4.88-.88h0c1.58,1.11,1.97,3.29.87,4.87h0c-.68.98-1.77,1.51-2.88,1.51h0c-.69,0-1.38-.21-1.99-.63ZM1443.57,345.31h0c-1.11-1.58-.72-3.76.87-4.87h0c1.58-1.11,3.76-.71,4.87.87h0c1.1,1.59.71,3.77-.87,4.87h0c-.61.43-1.31.63-2,.63h0c-1.11,0-2.2-.52-2.88-1.5ZM155.11,329.6c-1.56-1.15-1.89-3.34-.75-4.9h0c1.15-1.55,3.34-1.89,4.89-.74h0c1.56,1.14,1.9,3.33.75,4.89h0c-.69.94-1.75,1.43-2.82,1.43h0c-.72,0-1.45-.22-2.07-.68ZM1431.46,328.41c-1.15-1.56-.81-3.75.74-4.9h0c1.56-1.14,3.75-.81,4.9.74h0c1.14,1.56.81,3.75-.75,4.9h0c-.62.46-1.35.68-2.07.68h0c-1.07,0-2.13-.49-2.82-1.42ZM167.66,312.85c-1.53-1.19-1.8-3.39-.62-4.92h0c1.19-1.52,3.39-1.8,4.91-.61h0c1.53,1.18,1.8,3.38.62,4.91h0c-.69.89-1.72,1.35-2.77,1.35h0c-.75,0-1.5-.24-2.14-.73ZM1418.9,311.82h0c-1.19-1.52-.92-3.72.61-4.91h0c1.52-1.18,3.72-.91,4.91.61h0c1.19,1.53.91,3.73-.62,4.92h0c-.64.49-1.39.73-2.14.73h0c-1.05,0-2.08-.46-2.77-1.35ZM180.64,296.43c-1.49-1.23-1.71-3.43-.48-4.93h0c1.22-1.49,3.43-1.71,4.92-.48h0c1.5,1.22,1.71,3.43.49,4.92h0c-.69.85-1.7,1.29-2.71,1.29h0c-.78,0-1.57-.27-2.22-.8ZM1405.91,295.57c-1.22-1.49-1.01-3.7.49-4.93h0c1.49-1.22,3.7-1,4.92.49h0c1.23,1.49,1.01,3.7-.48,4.92h0c-.65.54-1.44.8-2.22.8h0c-1.01,0-2.02-.44-2.71-1.28ZM194.05,280.37c-1.46-1.27-1.62-3.48-.35-4.94h0c1.26-1.46,3.47-1.62,4.93-.36h0c1.46,1.27,1.62,3.48.36,4.94h0c-.69.8-1.67,1.21-2.65,1.21h0c-.81,0-1.63-.28-2.29-.85ZM1392.5,279.66c-1.27-1.46-1.11-3.67.35-4.93h0c1.46-1.27,3.67-1.11,4.94.35h0c1.26,1.46,1.1,3.67-.36,4.94h0c-.66.57-1.48.85-2.29.85h0c-.98,0-1.95-.41-2.64-1.21ZM207.88,264.66c-1.43-1.3-1.53-3.51-.23-4.94h0c1.3-1.43,3.52-1.53,4.95-.23h0c1.42,1.3,1.53,3.52.22,4.94h0c-.69.76-1.64,1.15-2.59,1.15h0c-.84,0-1.68-.31-2.35-.92ZM1378.67,264.11c-1.31-1.43-1.21-3.64.22-4.95h0c1.43-1.3,3.64-1.2,4.94.23h0c1.31,1.42,1.2,3.64-.22,4.94h0c-.67.61-1.52.92-2.36.92h0c-.95,0-1.89-.39-2.58-1.14ZM222.11,249.33c-1.39-1.34-1.44-3.56-.1-4.95h0c1.34-1.39,3.56-1.44,4.95-.1h0c1.39,1.34,1.44,3.56.1,4.95h0c-.69.72-1.61,1.08-2.53,1.08h0c-.87,0-1.74-.33-2.42-.98ZM1364.43,248.92h0c-1.34-1.39-1.3-3.61.09-4.95h0c1.39-1.34,3.61-1.3,4.95.09h0c1.34,1.4,1.3,3.61-.09,4.95h0c-.68.66-1.56.98-2.43.98h0c-.92,0-1.84-.36-2.52-1.07ZM236.73,234.38c-1.35-1.38-1.34-3.6.04-4.95h0c1.37-1.36,3.59-1.35,4.95.03h0c1.35,1.37,1.34,3.59-.04,4.95h0c-.68.67-1.57,1.01-2.46,1.01h0c-.9,0-1.8-.35-2.49-1.04ZM1349.79,234.1c-1.37-1.35-1.39-3.57-.03-4.95h0c1.36-1.37,3.57-1.39,4.95-.03h0c1.38,1.36,1.39,3.57.04,4.95h0c-.69.69-1.59,1.04-2.5,1.04h0c-.89,0-1.77-.33-2.46-1.01ZM251.74,219.82c-1.32-1.42-1.25-3.63.16-4.95h.01c1.41-1.32,3.62-1.25,4.94.16h0c1.32,1.41,1.25,3.62-.16,4.95h0c-.68.63-1.54.94-2.39.94h0c-.94,0-1.87-.37-2.56-1.1ZM1334.78,219.68c-1.42-1.32-1.49-3.54-.17-4.95h0c1.32-1.41,3.54-1.49,4.95-.16h0c1.41,1.32,1.48,3.53.16,4.94h0c-.69.74-1.62,1.11-2.55,1.11h0c-.86,0-1.72-.31-2.39-.94ZM267.13,205.65c-1.29-1.44-1.16-3.65.29-4.94h0c1.44-1.28,3.65-1.15,4.94.3h0c1.28,1.44,1.15,3.65-.29,4.94h0c-.67.59-1.5.88-2.33.88h0c-.96,0-1.92-.4-2.61-1.18ZM1319.38,205.65h0c-1.44-1.29-1.58-3.5-.29-4.94h0c1.28-1.45,3.49-1.58,4.94-.3h0c1.44,1.29,1.58,3.5.29,4.95h0c-.69.77-1.65,1.17-2.61,1.17h0c-.83,0-1.66-.29-2.33-.88ZM282.87,191.91c-1.24-1.48-1.06-3.69.42-4.94h0c1.48-1.24,3.69-1.05,4.94.42h0c1.24,1.48,1.05,3.69-.43,4.94h0c-.65.55-1.45.82-2.25.82h0c-1,0-1.99-.42-2.68-1.24ZM1303.62,192.02c-1.48-1.24-1.67-3.45-.42-4.93h0c1.24-1.48,3.45-1.67,4.93-.42h0c1.48,1.24,1.67,3.45.42,4.93h0c-.69.82-1.68,1.25-2.68,1.25h0c-.79,0-1.59-.27-2.25-.83ZM298.97,178.58c-1.21-1.51-.96-3.72.55-4.92h0c1.51-1.21,3.71-.96,4.92.55h0c1.21,1.51.96,3.71-.55,4.92h0c-.64.51-1.42.76-2.18.76h0c-1.03,0-2.05-.45-2.74-1.31ZM1287.51,178.82c-1.52-1.21-1.76-3.41-.56-4.92h0c1.21-1.51,3.41-1.76,4.92-.55h0c1.51,1.2,1.76,3.4.55,4.91h0c-.69.87-1.71,1.32-2.73,1.32h0c-.77,0-1.54-.25-2.18-.76ZM315.41,165.68c-1.16-1.54-.86-3.74.68-4.91h0c1.54-1.16,3.74-.86,4.9.68h0c1.17,1.54.87,3.74-.68,4.91h0c-.63.47-1.37.71-2.11.71h0c-1.05,0-2.1-.48-2.79-1.39ZM1271.05,166.04c-1.55-1.17-1.85-3.37-.68-4.91h0c1.16-1.54,3.36-1.85,4.9-.68h0c1.54,1.17,1.85,3.36.68,4.9h0c-.69.91-1.74,1.39-2.8,1.39h0c-.73,0-1.47-.23-2.1-.7ZM332.18,153.22c-1.12-1.58-.76-3.76.81-4.89h0c1.57-1.12,3.76-.76,4.88.81h0c1.13,1.57.77,3.76-.81,4.88h0c-.61.45-1.32.66-2.03.66h0c-1.09,0-2.16-.51-2.85-1.46ZM1254.25,153.69c-1.57-1.12-1.93-3.31-.81-4.88h0c1.13-1.57,3.31-1.94,4.89-.81h0c1.57,1.12,1.93,3.31.81,4.88h0c-.69.95-1.76,1.46-2.85,1.46h0c-.71,0-1.42-.21-2.04-.65ZM349.27,141.2c-1.08-1.6-.66-3.77.93-4.86h0c1.61-1.08,3.78-.66,4.87.94h0c1.08,1.6.66,3.77-.94,4.86h0c-.6.41-1.28.6-1.96.6h0c-1.12,0-2.22-.54-2.9-1.54ZM1237.14,141.79c-1.6-1.08-2.02-3.26-.94-4.86h0c1.08-1.6,3.26-2.02,4.86-.94h0c1.6,1.08,2.02,3.26.94,4.86h0c-.68,1-1.78,1.54-2.9,1.54h0c-.68,0-1.36-.2-1.96-.6ZM366.66,129.64c-1.04-1.62-.56-3.79,1.07-4.83h0c1.63-1.04,3.79-.56,4.83,1.07h0c1.04,1.62.57,3.79-1.06,4.83h0c-.59.37-1.24.55-1.88.55h0c-1.16,0-2.29-.57-2.96-1.62ZM1219.71,130.34c-1.63-1.04-2.11-3.2-1.07-4.83h0c1.04-1.63,3.21-2.11,4.84-1.07h0c1.63,1.04,2.1,3.21,1.07,4.83h0c-.67,1.05-1.8,1.62-2.96,1.62h0c-.64,0-1.29-.18-1.88-.55ZM384.35,118.55c-1-1.65-.46-3.8,1.19-4.8h0c1.66-1,3.81-.47,4.81,1.19h0c.99,1.65.46,3.8-1.19,4.8h0c-.57.34-1.19.51-1.81.51h0c-1.18,0-2.34-.61-3-1.7ZM1201.99,119.36c-1.66-1-2.19-3.15-1.2-4.81h0c1-1.65,3.15-2.19,4.8-1.19h0c1.66.99,2.2,3.15,1.2,4.8h0c-.66,1.09-1.82,1.7-3,1.7h0c-.62,0-1.24-.16-1.8-.5ZM402.32,107.93c-.95-1.68-.36-3.81,1.32-4.77h0c1.68-.95,3.82-.36,4.77,1.32h0c.95,1.68.37,3.81-1.32,4.77h0c-.54.31-1.13.46-1.72.46h0c-1.22,0-2.4-.64-3.05-1.78ZM1183.97,108.84h0c-1.69-.95-2.28-3.09-1.33-4.77h0c.95-1.68,3.09-2.27,4.77-1.32h0c1.68.95,2.28,3.09,1.32,4.77h0c-.64,1.14-1.83,1.78-3.05,1.78h0c-.58,0-1.17-.15-1.72-.46ZM420.56,97.79c-.91-1.7-.26-3.82,1.45-4.73h-.01c1.71-.91,3.83-.27,4.74,1.44h0c.91,1.7.26,3.83-1.44,4.73h0c-.53.28-1.09.42-1.64.42h0c-1.26,0-2.47-.68-3.1-1.86ZM1165.68,98.8h0c-1.7-.9-2.35-3.02-1.44-4.73h0c.9-1.7,3.02-2.35,4.73-1.45h0c1.71.91,2.35,3.03,1.45,4.74h0c-.63,1.18-1.84,1.86-3.1,1.86h0c-.55,0-1.11-.14-1.64-.42ZM439.06,88.14c-.87-1.73-.16-3.83,1.56-4.7h0c1.73-.86,3.83-.16,4.69,1.57h0c.86,1.73.16,3.83-1.57,4.7h0c-.5.25-1.03.36-1.56.36h0c-1.28,0-2.52-.7-3.13-1.93ZM1147.13,89.25h0c-1.73-.86-2.43-2.96-1.57-4.69h0c.86-1.73,2.96-2.43,4.69-1.57h0c1.73.86,2.44,2.96,1.57,4.69h0c-.61,1.23-1.85,1.94-3.13,1.94h0c-.53,0-1.06-.12-1.56-.37ZM457.8,78.98c-.82-1.75-.06-3.84,1.69-4.65h0c1.75-.82,3.83-.06,4.65,1.69h0c.82,1.75.06,3.83-1.69,4.65h0c-.48.22-.98.33-1.48.33h0c-1.32,0-2.58-.75-3.17-2.02ZM1128.33,80.2c-1.76-.82-2.52-2.9-1.7-4.65h0c.82-1.75,2.9-2.51,4.65-1.7h0c1.75.82,2.51,2.9,1.7,4.65h0c-.6,1.28-1.86,2.03-3.18,2.03h0c-.49,0-1-.11-1.47-.33ZM476.77,70.32c-.77-1.77.04-3.83,1.81-4.6h0c1.77-.77,3.83.04,4.61,1.81h0c.77,1.77-.04,3.83-1.82,4.61h0c-.45.19-.92.29-1.39.29h0c-1.35,0-2.64-.79-3.21-2.11ZM1109.28,71.64c-1.77-.76-2.58-2.83-1.82-4.6h0c.77-1.77,2.83-2.59,4.61-1.82h0c1.77.77,2.59,2.83,1.82,4.6h0c-.58,1.33-1.86,2.11-3.22,2.11h0c-.46,0-.93-.09-1.39-.29ZM495.96,62.17c-.73-1.79.14-3.83,1.93-4.55h0c1.79-.73,3.83.14,4.55,1.93h0c.73,1.79-.14,3.83-1.93,4.56h0c-.43.17-.87.25-1.31.25h0c-1.38,0-2.7-.83-3.24-2.19ZM1090.02,63.6c-1.8-.72-2.67-2.76-1.95-4.55h0c.72-1.8,2.76-2.67,4.56-1.95h0c1.79.72,2.66,2.76,1.94,4.56h0c-.55,1.36-1.86,2.19-3.25,2.19h0c-.43,0-.88-.08-1.3-.25ZM515.42,54.51c-.68-1.81.24-3.83,2.05-4.51h0c1.81-.67,3.83.25,4.5,2.06h0c.68,1.81-.24,3.83-2.05,4.5h0c-.4.15-.82.23-1.22.23h0c-1.42,0-2.76-.87-3.28-2.28ZM1070.53,56.07c-1.81-.68-2.73-2.69-2.06-4.5h0c.67-1.82,2.69-2.74,4.5-2.07h0c1.81.68,2.73,2.69,2.06,4.5h0c-.52,1.41-1.86,2.29-3.28,2.29h0c-.4,0-.81-.08-1.22-.22ZM535.08,47.36c-.63-1.82.34-3.82,2.17-4.44h0c1.83-.63,3.82.34,4.45,2.17h0c.62,1.83-.35,3.82-2.18,4.45h0c-.37.13-.76.19-1.13.19h0c-1.46,0-2.82-.92-3.31-2.37ZM1050.85,49.05c-1.83-.62-2.8-2.61-2.18-4.44h0c.63-1.83,2.61-2.8,4.44-2.18h0c1.83.62,2.81,2.61,2.18,4.44h0c-.49,1.46-1.85,2.37-3.31,2.37h0c-.37,0-.75-.06-1.13-.19ZM554.92,40.74c-.58-1.84.44-3.8,2.29-4.38h0c1.84-.58,3.81.44,4.39,2.29h0c.58,1.84-.45,3.81-2.29,4.39h0c-.35.11-.71.16-1.05.16h0c-1.49,0-2.87-.96-3.34-2.46ZM1030.99,42.57c-1.85-.58-2.88-2.54-2.3-4.38h0c.57-1.85,2.53-2.88,4.38-2.3h0c1.85.57,2.87,2.53,2.3,4.38h0c-.47,1.5-1.85,2.46-3.34,2.46h0c-.35,0-.7-.05-1.04-.16ZM574.93,34.66c-.53-1.86.55-3.8,2.41-4.33h0c1.85-.53,3.79.55,4.32,2.41h0c.53,1.86-.55,3.79-2.41,4.32h0c-.32.1-.64.14-.96.14h0c-1.52,0-2.92-1.01-3.36-2.54ZM1011.03,36.63h0c-1.87-.52-2.95-2.46-2.42-4.32h0c.52-1.85,2.46-2.94,4.32-2.41h0c1.86.53,2.94,2.46,2.42,4.32h0c-.44,1.54-1.84,2.55-3.37,2.55h0c-.31,0-.63-.05-.95-.14ZM595.09,29.1c-.48-1.87.65-3.78,2.52-4.26h0c1.88-.48,3.78.65,4.26,2.52h0c.48,1.88-.65,3.78-2.52,4.26h0c-.29.08-.58.11-.87.11h0c-1.56,0-2.98-1.05-3.39-2.63ZM990.91,31.24h0c-1.87-.48-3-2.39-2.53-4.26h0c.48-1.88,2.38-3.01,4.26-2.53h0c1.87.48,3,2.38,2.53,4.25h0c-.41,1.59-1.83,2.64-3.39,2.64h0c-.29,0-.58-.03-.87-.1ZM615.4,24.09c-.43-1.89.75-3.76,2.63-4.2h0c1.89-.43,3.76.76,4.19,2.64h0c.43,1.88-.75,3.76-2.63,4.19h0c-.26.06-.52.09-.78.09h0c-1.6,0-3.04-1.1-3.41-2.72ZM970.66,26.37h0c-1.88-.43-3.06-2.3-2.64-4.18h0c.43-1.89,2.3-3.07,4.19-2.65h0c1.88.43,3.06,2.3,2.64,4.19h0c-.37,1.63-1.81,2.73-3.41,2.73h0c-.26,0-.52-.03-.78-.09ZM635.83,19.61c-.38-1.89.85-3.74,2.74-4.12h0c1.9-.38,3.74.85,4.13,2.75h0c.37,1.89-.85,3.74-2.75,4.11h0c-.23.05-.46.08-.69.08h0c-1.64,0-3.1-1.15-3.43-2.82ZM950.29,22.05c-1.89-.38-3.13-2.22-2.75-4.12h0c.38-1.89,2.22-3.13,4.12-2.75h0c1.89.38,3.12,2.22,2.75,4.12h0c-.33,1.66-1.8,2.82-3.43,2.82h0c-.23,0-.46-.03-.69-.07ZM656.37,15.68c-.33-1.9.95-3.71,2.85-4.04h0c1.91-.33,3.72.94,4.05,2.85h0c.33,1.9-.95,3.71-2.85,4.04h0c-.2.04-.4.05-.6.05h0c-1.67,0-3.15-1.2-3.45-2.9ZM929.82,18.27c-1.91-.33-3.19-2.14-2.86-4.04h0c.32-1.91,2.13-3.19,4.04-2.86h0c1.9.32,3.18,2.13,2.86,4.04h0c-.3,1.7-1.78,2.91-3.45,2.91h0c-.19,0-.39-.02-.59-.05ZM677.01,12.3c-.28-1.92,1.05-3.69,2.96-3.97h0c1.92-.28,3.69,1.04,3.97,2.96h0c.28,1.91-1.04,3.69-2.96,3.96h0c-.17.03-.34.04-.51.04h0c-1.71,0-3.2-1.25-3.46-2.99ZM909.25,15.03c-1.92-.28-3.25-2.05-2.97-3.96h0c.28-1.92,2.05-3.24,3.96-2.97h0c1.92.27,3.24,2.05,2.97,3.96h0c-.25,1.75-1.75,3-3.46,3h0c-.17,0-.34-.01-.5-.03ZM697.74,9.46c-.23-1.92,1.14-3.66,3.06-3.89h0c1.92-.23,3.66,1.14,3.89,3.06h0c.22,1.92-1.15,3.66-3.07,3.89h0c-.14.02-.27.02-.41.02h0c-1.75,0-3.26-1.3-3.47-3.08ZM888.6,12.34c-1.92-.23-3.3-1.97-3.07-3.89h0c.22-1.92,1.96-3.29,3.88-3.07h0c1.92.23,3.29,1.97,3.07,3.89h0c-.21,1.78-1.72,3.09-3.47,3.09h0c-.14,0-.28-.01-.41-.02ZM718.53,7.17c-.18-1.93,1.23-3.63,3.16-3.81h0c1.92-.18,3.63,1.24,3.81,3.16h0c.17,1.93-1.24,3.63-3.17,3.81h0c-.11,0-.22.02-.32.02h0c-1.79,0-3.32-1.37-3.48-3.18ZM867.88,10.19c-1.92-.18-3.34-1.88-3.17-3.81h0c.17-1.92,1.88-3.34,3.8-3.16h0c1.93.17,3.35,1.87,3.18,3.8h0c-.17,1.81-1.7,3.18-3.49,3.18h0c-.1,0-.21,0-.32,0ZM739.37,5.42c-.13-1.93,1.33-3.59,3.26-3.72h0c1.93-.13,3.59,1.33,3.72,3.26h0c.13,1.93-1.33,3.6-3.26,3.73h-.23c-1.83,0-3.37-1.41-3.49-3.27ZM847.12,8.58c-1.93-.12-3.39-1.78-3.27-3.71h0c.13-1.93,1.79-3.4,3.72-3.27h0c1.93.12,3.39,1.78,3.27,3.71h0c-.12,1.86-1.66,3.28-3.49,3.28h0c-.08,0-.15,0-.23,0ZM760.25,4.23c-.08-1.94,1.43-3.56,3.36-3.64h0c1.93-.08,3.56,1.42,3.64,3.36h0c.07,1.93-1.43,3.56-3.36,3.63h0c-.05,0-.1,0-.15,0h0c-1.86,0-3.42-1.48-3.49-3.36ZM826.32,7.52h0c-1.94-.07-3.44-1.69-3.37-3.63h0c.07-1.93,1.7-3.44,3.63-3.36h0c1.93.07,3.44,1.7,3.36,3.63h0c-.07,1.88-1.62,3.36-3.49,3.36h-.14ZM781.13,3.57c-.03-1.93,1.51-3.52,3.45-3.55h0c1.93-.02,3.52,1.52,3.55,3.46h0c.02,1.93-1.52,3.52-3.45,3.54h-.06c-1.9,0-3.46-1.53-3.49-3.45ZM805.5,7c-1.93-.02-3.48-1.61-3.45-3.54h0c.02-1.93,1.6-3.48,3.54-3.46h0c1.93.03,3.48,1.61,3.46,3.54h0c-.03,1.92-1.59,3.46-3.5,3.46h-.05Z" fill="#c8c8c8"/></svg>